<svg width="94" height="110" viewBox="0 0 94 110" fill="none" xmlns="http://www.w3.org/2000/svg">
<path d="M55.2854 34.1H56.9354C66.7354 34.1 75.2354 37.3 82.4354 43.7C89.6354 50.1 93.2354 58.7 93.2354 69.5C93.2354 82.3 88.7354 92.25 79.7354 99.35C70.8354 106.45 59.8354 110 46.7354 110C33.5354 110 22.4854 106.55 13.5854 99.65C4.68535 92.75 0.235352 82.8 0.235352 69.8C0.235352 58.7 4.63535 47.05 13.4354 34.85L37.7354 0.799999H81.0854L56.6354 32.45L55.2854 34.1ZM46.7354 59C43.5354 59 40.8854 60.05 38.7854 62.15C36.7854 64.15 35.7854 66.65 35.7854 69.65C35.7854 72.75 36.7854 75.35 38.7854 77.45C40.8854 79.55 43.5354 80.6 46.7354 80.6C50.0354 80.6 52.7354 79.55 54.8354 77.45C56.9354 75.35 57.9854 72.75 57.9854 69.65C57.9854 66.65 56.9354 64.15 54.8354 62.15C52.7354 60.05 50.0354 59 46.7354 59Z" fill="url(#paint0_linear)"/>
<defs>
<linearGradient id="paint0_linear" x1="-6" y1="69.3333" x2="104.114" y2="69.3333" gradientUnits="userSpaceOnUse">
<stop stop-color="#29E5F1"/>
<stop offset="1" stop-color="#4DC5F5"/>
</linearGradient>
</defs>
</svg>
