<svg width="25" height="25" viewBox="0 0 25 25" fill="none" xmlns="http://www.w3.org/2000/svg">
<path d="M15.8578 6.50049H8.57564C7.41331 6.50049 6.46765 7.44614 6.46765 8.60848V15.8906C6.46765 17.053 7.41331 17.9989 8.57564 17.9989H15.8578C17.0201 17.9989 17.9661 17.0532 17.9661 15.8906V8.60848C17.9661 7.44614 17.0204 6.50049 15.8578 6.50049ZM12.2167 16.0349C10.1297 16.0349 8.43164 14.3369 8.43164 12.2496C8.43164 10.1625 10.1297 8.46448 12.2167 8.46448C14.304 8.46448 16.0021 10.1625 16.0021 12.2496C16.0021 14.3366 14.3038 16.0349 12.2167 16.0349ZM16.1237 9.24708C15.6297 9.24708 15.2279 8.8453 15.2279 8.35151C15.2279 7.85773 15.6297 7.45594 16.1237 7.45594C16.6175 7.45594 17.0193 7.85773 17.0193 8.35151C17.0193 8.8453 16.6175 9.24708 16.1237 9.24708Z" fill="white"/>
<path d="M12.2165 10.0637C11.0117 10.0637 10.0307 11.0442 10.0307 12.249C10.0307 13.4544 11.0117 14.4351 12.2165 14.4351C13.4219 14.4351 14.4021 13.4544 14.4021 12.249C14.4021 11.0445 13.4216 10.0637 12.2165 10.0637Z" fill="white"/>
<path d="M12.2165 0C5.46978 0 0 5.46978 0 12.2165C0 18.9632 5.46978 24.433 12.2165 24.433C18.9632 24.433 24.433 18.9632 24.433 12.2165C24.433 5.46978 18.9632 0 12.2165 0ZM19.5651 15.8905C19.5651 17.9351 17.9021 19.598 15.8576 19.598H8.57542C6.53113 19.598 4.86792 17.9351 4.86792 15.8905V8.60836C4.86792 6.56406 6.53113 4.90086 8.57542 4.90086H15.8576C17.9021 4.90086 19.5651 6.56406 19.5651 8.60836V15.8905Z" fill="white"/>
</svg>
