<svg width="92" height="110" viewBox="0 0 92 110" fill="none" xmlns="http://www.w3.org/2000/svg">
<path d="M5.13535 82.25L47.1354 48.65C51.0354 45.65 52.9854 42.55 52.9854 39.35C52.9854 37.25 52.2854 35.5 50.8854 34.1C49.5854 32.6 47.6854 31.85 45.1854 31.85C42.2854 31.85 39.8854 33 37.9854 35.3C36.0854 37.6 35.0354 40.7 34.8354 44.6L0.785352 40.7C2.08535 27.7 7.23535 17.8 16.2354 11C25.2354 4.19999 35.8854 0.799993 48.1854 0.799993C53.6854 0.799993 58.8854 1.44999 63.7854 2.74999C68.6854 4.05 73.1854 6.05 77.2854 8.75C81.4854 11.35 84.7854 14.95 87.1854 19.55C89.6854 24.15 90.9354 29.45 90.9354 35.45C90.9354 40.95 89.8354 45.95 87.6354 50.45C85.5354 54.85 83.1854 58.3 80.5854 60.8C77.9854 63.3 74.5354 66.05 70.2354 69.05L54.6354 80.15H91.2354V110H5.13535V82.25Z" fill="url(#paint0_linear)"/>
<defs>
<linearGradient id="paint0_linear" x1="-5" y1="72.3333" x2="105.114" y2="72.3333" gradientUnits="userSpaceOnUse">
<stop stop-color="#29E5F1"/>
<stop offset="1" stop-color="#4DC5F5"/>
</linearGradient>
</defs>
</svg>
