<svg width="94" height="113" viewBox="0 0 94 113" fill="none" xmlns="http://www.w3.org/2000/svg">
<path d="M75.1854 53.75V54.35C80.5854 56.05 84.9354 59.15 88.2354 63.65C91.6354 68.05 93.3354 72.8 93.3354 77.9C93.3354 85.8 91.0854 92.5 86.5854 98C82.0854 103.4 76.5854 107.25 70.0854 109.55C63.5854 111.85 56.5354 113 48.9354 113C37.2354 113 26.8354 110.25 17.7354 104.75C8.73535 99.25 2.88535 91.1 0.185352 80.3L33.4854 72.5C34.0854 75.3 35.5854 77.75 37.9854 79.85C40.4854 81.95 43.4854 83 46.9854 83C49.3854 83 51.5354 82.45 53.4354 81.35C55.3354 80.15 56.2854 78.3 56.2854 75.8C56.2854 72.8 54.9854 70.75 52.3854 69.65C49.7854 68.55 45.9354 68 40.8354 68H30.6354V43.4H42.0354C50.4354 43.4 54.6354 40.85 54.6354 35.75C54.6354 33.65 53.7854 32.1 52.0854 31.1C50.4854 30.1 48.5354 29.6 46.2354 29.6C43.6354 29.6 41.2854 30.4 39.1854 32C37.1854 33.6 35.9354 35.85 35.4354 38.75L2.28535 31.7C5.58535 21 11.5354 13.2 20.1354 8.3C28.8354 3.29999 38.5354 0.799993 49.2354 0.799993C54.2354 0.799993 59.0854 1.39999 63.7854 2.6C68.5854 3.79999 73.0854 5.59999 77.2854 8C81.4854 10.4 84.8854 13.7 87.4854 17.9C90.0854 22.1 91.3854 26.85 91.3854 32.15C91.3854 37.85 89.8854 42.55 86.8854 46.25C83.8854 49.85 79.9854 52.35 75.1854 53.75Z" fill="url(#paint0_linear)"/>
<defs>
<linearGradient id="paint0_linear" x1="-5" y1="72.3333" x2="105.114" y2="72.3333" gradientUnits="userSpaceOnUse">
<stop stop-color="#29E5F1"/>
<stop offset="1" stop-color="#4DC5F5"/>
</linearGradient>
</defs>
</svg>
