<svg width="92" height="110" viewBox="0 0 92 110" fill="none" xmlns="http://www.w3.org/2000/svg">
<path d="M91.7354 71.3C91.7354 78.3 90.3854 84.45 87.6854 89.75C85.0854 94.95 81.5854 98.95 77.1854 101.75C72.7854 104.55 68.0854 106.6 63.0854 107.9C58.1854 109.3 52.9854 110 47.4854 110C36.1854 110 25.9854 107.05 16.8854 101.15C7.78535 95.25 2.28535 87.3 0.385352 77.3L33.3854 68.9C33.9854 71.9 35.4854 74.45 37.8854 76.55C40.2854 78.65 43.0854 79.7 46.2854 79.7C52.8854 79.7 56.1854 77 56.1854 71.6C56.1854 65.6 49.8854 62.6 37.2854 62.6C29.4854 62.6 20.2354 63.65 9.53535 65.75L13.2854 0.799999H85.4354V30.5H43.4354L42.8354 38.15C46.0354 37.65 48.6854 37.4 50.7854 37.4C62.5854 37.4 72.3354 40.25 80.0354 45.95C87.8354 51.65 91.7354 60.1 91.7354 71.3Z" fill="url(#paint0_linear)"/>
<defs>
<linearGradient id="paint0_linear" x1="-6" y1="69.3333" x2="104.114" y2="69.3333" gradientUnits="userSpaceOnUse">
<stop stop-color="#29E5F1"/>
<stop offset="1" stop-color="#4DC5F5"/>
</linearGradient>
</defs>
</svg>
