<svg width="205" height="63" viewBox="0 0 205 63" fill="none" xmlns="http://www.w3.org/2000/svg">
<path d="M26.2362 10.0959L31.1948 11.8787L26.8624 14.529" stroke="white" stroke-width="2" stroke-linecap="round" stroke-linejoin="round"/>
<path d="M30.3852 11.9189C19.6531 12.4523 11.3855 21.5847 11.9188 32.3168C12.4522 43.0488 21.5847 51.3165 32.3167 50.7831C43.0488 50.2497 51.3164 41.1173 50.783 30.3852" stroke="white" stroke-width="2" stroke-linecap="round" stroke-linejoin="round"/>
<path d="M69.2041 24V14.088H72.2281C73.3387 14.088 74.2067 14.3167 74.8321 14.774C75.4574 15.222 75.7701 15.9127 75.7701 16.846C75.7701 17.798 75.4387 18.5027 74.7761 18.96C74.1227 19.4173 73.2501 19.646 72.1581 19.646H70.5901V24H69.2041ZM70.5901 15.264V18.47H72.0601C73.6001 18.47 74.3701 17.9287 74.3701 16.846C74.3701 15.7913 73.6094 15.264 72.0881 15.264H70.5901ZM76.8177 18.792C76.8177 18.2227 76.799 17.7467 76.7617 17.364H78.0077C78.045 17.812 78.0637 18.1853 78.0637 18.484H78.1057C78.2923 18.092 78.5677 17.7793 78.9317 17.546C79.2957 17.3033 79.697 17.182 80.1357 17.182C80.341 17.182 80.5137 17.2007 80.6537 17.238L80.5977 18.456C80.411 18.4093 80.2103 18.386 79.9957 18.386C79.3983 18.386 78.9363 18.5913 78.6097 19.002C78.2923 19.4127 78.1337 19.9167 78.1337 20.514V24H76.8177V18.792ZM87.3418 18.162C88.0232 18.8153 88.3638 19.6507 88.3638 20.668C88.3638 21.6853 88.0185 22.5253 87.3278 23.188C86.6465 23.8507 85.7972 24.182 84.7798 24.182C83.7625 24.182 82.9132 23.8507 82.2318 23.188C81.5505 22.5253 81.2098 21.6853 81.2098 20.668C81.2098 19.6507 81.5458 18.8153 82.2178 18.162C82.8992 17.5087 83.7532 17.182 84.7798 17.182C85.8065 17.182 86.6605 17.5087 87.3418 18.162ZM86.3898 22.376C86.7912 21.9 86.9918 21.3307 86.9918 20.668C86.9918 20.0053 86.7912 19.4407 86.3898 18.974C85.9978 18.5073 85.4612 18.274 84.7798 18.274C84.0985 18.274 83.5572 18.5073 83.1558 18.974C82.7638 19.4407 82.5678 20.0053 82.5678 20.668C82.5678 21.3307 82.7638 21.9 83.1558 22.376C83.5572 22.8427 84.0985 23.076 84.7798 23.076C85.4612 23.076 85.9978 22.8427 86.3898 22.376ZM95.7887 18.274L94.8367 19.044C94.6967 18.82 94.4821 18.638 94.1927 18.498C93.9127 18.358 93.6187 18.288 93.3107 18.288C92.6481 18.288 92.1207 18.5213 91.7287 18.988C91.3367 19.4547 91.1407 20.0193 91.1407 20.682C91.1407 21.3447 91.3367 21.9093 91.7287 22.376C92.1301 22.8427 92.6621 23.076 93.3247 23.076C94.0061 23.076 94.5381 22.8333 94.9207 22.348L95.8027 23.146C95.2054 23.8367 94.3794 24.182 93.3247 24.182C92.2887 24.182 91.4347 23.86 90.7627 23.216C90.0907 22.572 89.7547 21.7273 89.7547 20.682C89.7547 19.646 90.0861 18.806 90.7487 18.162C91.4207 17.5087 92.2701 17.182 93.2967 17.182C93.7821 17.182 94.2534 17.28 94.7107 17.476C95.1681 17.6627 95.5274 17.9287 95.7887 18.274ZM98.0167 20.094H101.965C101.946 19.5433 101.778 19.0953 101.461 18.75C101.143 18.3953 100.691 18.218 100.103 18.218C99.5427 18.218 99.0667 18.4 98.6747 18.764C98.2827 19.128 98.0634 19.5713 98.0167 20.094ZM103.295 20.626C103.295 20.822 103.29 20.9713 103.281 21.074H98.0167C98.0354 21.6433 98.2547 22.124 98.6747 22.516C99.0947 22.8987 99.5941 23.09 100.173 23.09C101.003 23.09 101.647 22.754 102.105 22.082L103.029 22.824C102.329 23.7293 101.377 24.182 100.173 24.182C99.1554 24.182 98.3154 23.86 97.6527 23.216C96.9994 22.572 96.6727 21.732 96.6727 20.696C96.6727 19.6693 96.9994 18.8293 97.6527 18.176C98.3061 17.5133 99.1227 17.182 100.103 17.182C101.083 17.182 101.857 17.4947 102.427 18.12C103.005 18.736 103.295 19.5713 103.295 20.626ZM109.626 18.274L108.716 19.044C108.567 18.8013 108.352 18.6053 108.072 18.456C107.801 18.2973 107.503 18.218 107.176 18.218C106.84 18.218 106.551 18.2927 106.308 18.442C106.065 18.582 105.944 18.7967 105.944 19.086C105.944 19.3473 106.061 19.548 106.294 19.688C106.527 19.828 106.915 19.9587 107.456 20.08C108.94 20.4067 109.682 21.06 109.682 22.04C109.682 22.768 109.425 23.3093 108.912 23.664C108.408 24.0093 107.783 24.182 107.036 24.182C106.513 24.182 106.014 24.0793 105.538 23.874C105.062 23.6687 104.67 23.3747 104.362 22.992L105.3 22.194C105.477 22.4647 105.725 22.6887 106.042 22.866C106.369 23.034 106.709 23.118 107.064 23.118C107.437 23.118 107.75 23.0433 108.002 22.894C108.254 22.7353 108.38 22.488 108.38 22.152C108.38 21.8627 108.245 21.6433 107.974 21.494C107.713 21.3447 107.269 21.1953 106.644 21.046C106.383 20.9807 106.154 20.9107 105.958 20.836C105.762 20.7613 105.561 20.6587 105.356 20.528C105.151 20.388 104.992 20.2107 104.88 19.996C104.768 19.772 104.712 19.5107 104.712 19.212C104.712 18.54 104.955 18.036 105.44 17.7C105.935 17.3547 106.527 17.182 107.218 17.182C107.703 17.182 108.165 17.28 108.604 17.476C109.052 17.6627 109.393 17.9287 109.626 18.274ZM115.847 18.274L114.937 19.044C114.787 18.8013 114.573 18.6053 114.293 18.456C114.022 18.2973 113.723 18.218 113.397 18.218C113.061 18.218 112.771 18.2927 112.529 18.442C112.286 18.582 112.165 18.7967 112.165 19.086C112.165 19.3473 112.281 19.548 112.515 19.688C112.748 19.828 113.135 19.9587 113.677 20.08C115.161 20.4067 115.903 21.06 115.903 22.04C115.903 22.768 115.646 23.3093 115.133 23.664C114.629 24.0093 114.003 24.182 113.257 24.182C112.734 24.182 112.235 24.0793 111.759 23.874C111.283 23.6687 110.891 23.3747 110.583 22.992L111.521 22.194C111.698 22.4647 111.945 22.6887 112.263 22.866C112.589 23.034 112.93 23.118 113.285 23.118C113.658 23.118 113.971 23.0433 114.223 22.894C114.475 22.7353 114.601 22.488 114.601 22.152C114.601 21.8627 114.465 21.6433 114.195 21.494C113.933 21.3447 113.49 21.1953 112.865 21.046C112.603 20.9807 112.375 20.9107 112.179 20.836C111.983 20.7613 111.782 20.6587 111.577 20.528C111.371 20.388 111.213 20.2107 111.101 19.996C110.989 19.772 110.933 19.5107 110.933 19.212C110.933 18.54 111.175 18.036 111.661 17.7C112.155 17.3547 112.748 17.182 113.439 17.182C113.924 17.182 114.386 17.28 114.825 17.476C115.273 17.6627 115.613 17.9287 115.847 18.274Z" fill="white"/>
<path d="M73.2801 30.424L77.9441 42.392H77.9881L82.5861 30.424H85.9741V46H83.7961V32.976H83.7521L78.5821 46H77.1961L72.0481 32.976H72.0041V46H69.8921V30.424H73.2801ZM96.1451 39.532V39.246C96.1451 38.498 95.9104 37.9333 95.4411 37.552C94.9864 37.156 94.3631 36.958 93.5711 36.958C92.3978 36.958 91.4078 37.3613 90.6011 38.168L89.5011 36.848C90.5864 35.8067 92.0091 35.286 93.7691 35.286C95.2064 35.286 96.2918 35.6673 97.0251 36.43C97.7584 37.178 98.1251 38.1607 98.1251 39.378V43.932C98.1251 44.8413 98.1764 45.5307 98.2791 46H96.4091C96.2918 45.5013 96.2331 45.0027 96.2331 44.504H96.1671C95.3898 45.6773 94.2238 46.264 92.6691 46.264C92.2291 46.264 91.7964 46.2053 91.3711 46.088C90.9458 45.9707 90.5424 45.7947 90.1611 45.56C89.7798 45.3253 89.4718 44.9953 89.2371 44.57C89.0024 44.13 88.8851 43.624 88.8851 43.052C88.8851 42.4507 89.0244 41.93 89.3031 41.49C89.5964 41.0353 89.9631 40.6907 90.4031 40.456C90.8431 40.2067 91.4004 40.016 92.0751 39.884C92.7644 39.7373 93.4098 39.642 94.0111 39.598C94.6271 39.554 95.3384 39.532 96.1451 39.532ZM96.1451 41.028H95.6391C92.5444 41.028 90.9971 41.688 90.9971 43.008C90.9971 43.58 91.2024 43.998 91.6131 44.262C92.0238 44.5113 92.5298 44.636 93.1311 44.636C94.0698 44.636 94.8031 44.3573 95.3311 43.8C95.8738 43.228 96.1451 42.4873 96.1451 41.578V41.028ZM101.491 35.572H103.449C103.508 36.276 103.537 36.848 103.537 37.288H103.603C103.867 36.716 104.314 36.2393 104.945 35.858C105.576 35.4767 106.258 35.286 106.991 35.286C108.267 35.286 109.235 35.682 109.895 36.474C110.555 37.266 110.885 38.2853 110.885 39.532V46H108.817V40.214C108.817 38.0873 108.025 37.024 106.441 37.024C105.62 37.024 104.945 37.3393 104.417 37.97C103.904 38.6007 103.647 39.4293 103.647 40.456V46H101.579V37.816C101.579 36.9213 101.55 36.1733 101.491 35.572ZM120.874 39.532V39.246C120.874 38.498 120.639 37.9333 120.17 37.552C119.715 37.156 119.092 36.958 118.3 36.958C117.126 36.958 116.136 37.3613 115.33 38.168L114.23 36.848C115.315 35.8067 116.738 35.286 118.498 35.286C119.935 35.286 121.02 35.6673 121.754 36.43C122.487 37.178 122.854 38.1607 122.854 39.378V43.932C122.854 44.8413 122.905 45.5307 123.008 46H121.138C121.02 45.5013 120.962 45.0027 120.962 44.504H120.896C120.118 45.6773 118.952 46.264 117.398 46.264C116.958 46.264 116.525 46.2053 116.1 46.088C115.674 45.9707 115.271 45.7947 114.89 45.56C114.508 45.3253 114.2 44.9953 113.966 44.57C113.731 44.13 113.614 43.624 113.614 43.052C113.614 42.4507 113.753 41.93 114.032 41.49C114.325 41.0353 114.692 40.6907 115.132 40.456C115.572 40.2067 116.129 40.016 116.804 39.884C117.493 39.7373 118.138 39.642 118.74 39.598C119.356 39.554 120.067 39.532 120.874 39.532ZM120.874 41.028H120.368C117.273 41.028 115.726 41.688 115.726 43.008C115.726 43.58 115.931 43.998 116.342 44.262C116.752 44.5113 117.258 44.636 117.86 44.636C118.798 44.636 119.532 44.3573 120.06 43.8C120.602 43.228 120.874 42.4873 120.874 41.578V41.028ZM125.801 49.388L127.121 47.782C127.576 48.2953 128.148 48.706 128.837 49.014C129.527 49.322 130.223 49.476 130.927 49.476C133.377 49.476 134.601 48.1927 134.601 45.626V44.284H134.557C134.176 44.856 133.655 45.3033 132.995 45.626C132.335 45.934 131.631 46.088 130.883 46.088C129.314 46.088 128.045 45.5747 127.077 44.548C126.109 43.5213 125.625 42.2453 125.625 40.72C125.625 39.18 126.109 37.8893 127.077 36.848C128.045 35.8067 129.307 35.286 130.861 35.286C131.639 35.286 132.365 35.4547 133.039 35.792C133.714 36.1293 134.242 36.6133 134.623 37.244H134.667V35.572H136.669V45.472C136.669 46.264 136.567 46.99 136.361 47.65C136.171 48.3247 135.855 48.9407 135.415 49.498C134.99 50.0553 134.389 50.488 133.611 50.796C132.849 51.1187 131.947 51.28 130.905 51.28C129.996 51.28 129.079 51.1113 128.155 50.774C127.231 50.4367 126.447 49.9747 125.801 49.388ZM127.759 40.676C127.759 41.688 128.075 42.5533 128.705 43.272C129.336 43.9907 130.172 44.35 131.213 44.35C132.269 44.35 133.12 44.0053 133.765 43.316C134.425 42.612 134.755 41.732 134.755 40.676C134.755 39.664 134.418 38.7987 133.743 38.08C133.083 37.3613 132.24 37.002 131.213 37.002C130.157 37.002 129.314 37.354 128.683 38.058C128.067 38.762 127.759 39.6347 127.759 40.676ZM141.638 39.862H147.842C147.813 38.9967 147.549 38.2927 147.05 37.75C146.551 37.1927 145.84 36.914 144.916 36.914C144.036 36.914 143.288 37.2 142.672 37.772C142.056 38.344 141.711 39.0407 141.638 39.862ZM149.932 40.698C149.932 41.006 149.925 41.2407 149.91 41.402H141.638C141.667 42.2967 142.012 43.052 142.672 43.668C143.332 44.2693 144.117 44.57 145.026 44.57C146.331 44.57 147.343 44.042 148.062 42.986L149.514 44.152C148.414 45.5747 146.918 46.286 145.026 46.286C143.427 46.286 142.107 45.78 141.066 44.768C140.039 43.756 139.526 42.436 139.526 40.808C139.526 39.1947 140.039 37.8747 141.066 36.848C142.093 35.8067 143.376 35.286 144.916 35.286C146.456 35.286 147.673 35.7773 148.568 36.76C149.477 37.728 149.932 39.0407 149.932 40.698ZM154.843 37.288C155.122 36.7013 155.555 36.2247 156.141 35.858C156.728 35.4767 157.403 35.286 158.165 35.286C159.72 35.286 160.798 35.9827 161.399 37.376C161.751 36.716 162.243 36.2027 162.873 35.836C163.504 35.4693 164.193 35.286 164.941 35.286C166.217 35.286 167.185 35.682 167.845 36.474C168.505 37.266 168.835 38.2853 168.835 39.532V46H166.767V40.214C166.767 38.0873 165.997 37.024 164.457 37.024C163.577 37.024 162.917 37.354 162.477 38.014C162.037 38.674 161.817 39.4587 161.817 40.368V46H159.749V39.796C159.749 37.948 159.016 37.024 157.549 37.024C156.787 37.024 156.149 37.3393 155.635 37.97C155.137 38.6007 154.887 39.4293 154.887 40.456V46H152.819V37.816C152.819 36.9213 152.79 36.1733 152.731 35.572H154.689C154.748 36.276 154.777 36.848 154.777 37.288H154.843ZM173.757 39.862H179.961C179.932 38.9967 179.668 38.2927 179.169 37.75C178.67 37.1927 177.959 36.914 177.035 36.914C176.155 36.914 175.407 37.2 174.791 37.772C174.175 38.344 173.83 39.0407 173.757 39.862ZM182.051 40.698C182.051 41.006 182.044 41.2407 182.029 41.402H173.757C173.786 42.2967 174.131 43.052 174.791 43.668C175.451 44.2693 176.236 44.57 177.145 44.57C178.45 44.57 179.462 44.042 180.181 42.986L181.633 44.152C180.533 45.5747 179.037 46.286 177.145 46.286C175.546 46.286 174.226 45.78 173.185 44.768C172.158 43.756 171.645 42.436 171.645 40.808C171.645 39.1947 172.158 37.8747 173.185 36.848C174.212 35.8067 175.495 35.286 177.035 35.286C178.575 35.286 179.792 35.7773 180.687 36.76C181.596 37.728 182.051 39.0407 182.051 40.698ZM184.85 35.572H186.808C186.867 36.276 186.896 36.848 186.896 37.288H186.962C187.226 36.716 187.674 36.2393 188.304 35.858C188.935 35.4767 189.617 35.286 190.35 35.286C191.626 35.286 192.594 35.682 193.254 36.474C193.914 37.266 194.244 38.2853 194.244 39.532V46H192.176V40.214C192.176 38.0873 191.384 37.024 189.8 37.024C188.979 37.024 188.304 37.3393 187.776 37.97C187.263 38.6007 187.006 39.4293 187.006 40.456V46H184.938V37.816C184.938 36.9213 184.909 36.1733 184.85 35.572ZM202.847 35.572V37.266H200.075V42.7C200.075 43.3307 200.192 43.7853 200.427 44.064C200.662 44.328 201.036 44.46 201.549 44.46C202.004 44.46 202.407 44.372 202.759 44.196L202.825 45.89C202.297 46.0807 201.71 46.176 201.065 46.176C200.082 46.176 199.327 45.9047 198.799 45.362C198.286 44.8047 198.029 43.9907 198.029 42.92V37.266H196.027V35.572H198.029V32.58H200.075V35.572H202.847Z" fill="#1A95C4"/>
</svg>
