<svg width="235" height="49" viewBox="0 0 235 49" fill="none" xmlns="http://www.w3.org/2000/svg">
<path d="M74.104 18.564L73.11 21H71.57L75.868 11.088H77.128L81.384 21H79.816L78.808 18.564H74.104ZM76.456 12.698L74.594 17.346H78.304L76.456 12.698ZM88.5091 21H87.2631C87.2258 20.552 87.2071 20.188 87.2071 19.908H87.1791C87.0018 20.272 86.7125 20.5753 86.3111 20.818C85.9098 21.0607 85.4758 21.182 85.0091 21.182C84.1971 21.182 83.5811 20.93 83.1611 20.426C82.7411 19.922 82.5311 19.2733 82.5311 18.48V14.364H83.8471V18.032C83.8471 19.3947 84.3511 20.076 85.3591 20.076C85.8911 20.076 86.3205 19.8753 86.6471 19.474C86.9738 19.0727 87.1371 18.5453 87.1371 17.892V14.364H88.4531V19.572C88.4531 20.1413 88.4718 20.6173 88.5091 21ZM93.9836 14.364V15.442H92.2196V18.9C92.2196 19.3013 92.2942 19.5907 92.4436 19.768C92.5929 19.936 92.8309 20.02 93.1576 20.02C93.4469 20.02 93.7036 19.964 93.9276 19.852L93.9696 20.93C93.6336 21.0513 93.2602 21.112 92.8496 21.112C92.2242 21.112 91.7436 20.9393 91.4076 20.594C91.0809 20.2393 90.9176 19.7213 90.9176 19.04V15.442H89.6436V14.364H90.9176V12.46H92.2196V14.364H93.9836ZM101.041 15.162C101.722 15.8153 102.063 16.6507 102.063 17.668C102.063 18.6853 101.718 19.5253 101.027 20.188C100.346 20.8507 99.4963 21.182 98.479 21.182C97.4617 21.182 96.6123 20.8507 95.931 20.188C95.2497 19.5253 94.909 18.6853 94.909 17.668C94.909 16.6507 95.245 15.8153 95.917 15.162C96.5983 14.5087 97.4523 14.182 98.479 14.182C99.5057 14.182 100.36 14.5087 101.041 15.162ZM100.089 19.376C100.49 18.9 100.691 18.3307 100.691 17.668C100.691 17.0053 100.49 16.4407 100.089 15.974C99.697 15.5073 99.1603 15.274 98.479 15.274C97.7977 15.274 97.2563 15.5073 96.855 15.974C96.463 16.4407 96.267 17.0053 96.267 17.668C96.267 18.3307 96.463 18.9 96.855 19.376C97.2563 19.8427 97.7977 20.076 98.479 20.076C99.1603 20.076 99.697 19.8427 100.089 19.376ZM105.176 15.456C105.353 15.0827 105.629 14.7793 106.002 14.546C106.375 14.3033 106.805 14.182 107.29 14.182C108.279 14.182 108.965 14.6253 109.348 15.512C109.572 15.092 109.885 14.7653 110.286 14.532C110.687 14.2987 111.126 14.182 111.602 14.182C112.414 14.182 113.03 14.434 113.45 14.938C113.87 15.442 114.08 16.0907 114.08 16.884V21H112.764V17.318C112.764 15.9647 112.274 15.288 111.294 15.288C110.734 15.288 110.314 15.498 110.034 15.918C109.754 16.338 109.614 16.8373 109.614 17.416V21H108.298V17.052C108.298 15.876 107.831 15.288 106.898 15.288C106.413 15.288 106.007 15.4887 105.68 15.89C105.363 16.2913 105.204 16.8187 105.204 17.472V21H103.888V15.792C103.888 15.2227 103.869 14.7467 103.832 14.364H105.078C105.115 14.812 105.134 15.176 105.134 15.456H105.176ZM120.432 16.884V16.702C120.432 16.226 120.283 15.8667 119.984 15.624C119.695 15.372 119.298 15.246 118.794 15.246C118.047 15.246 117.417 15.5027 116.904 16.016L116.204 15.176C116.895 14.5133 117.8 14.182 118.92 14.182C119.835 14.182 120.525 14.4247 120.992 14.91C121.459 15.386 121.692 16.0113 121.692 16.786V19.684C121.692 20.2627 121.725 20.7013 121.79 21H120.6C120.525 20.6827 120.488 20.3653 120.488 20.048H120.446C119.951 20.7947 119.209 21.168 118.22 21.168C117.94 21.168 117.665 21.1307 117.394 21.056C117.123 20.9813 116.867 20.8693 116.624 20.72C116.381 20.5707 116.185 20.3607 116.036 20.09C115.887 19.81 115.812 19.488 115.812 19.124C115.812 18.7413 115.901 18.41 116.078 18.13C116.265 17.8407 116.498 17.6213 116.778 17.472C117.058 17.3133 117.413 17.192 117.842 17.108C118.281 17.0147 118.691 16.954 119.074 16.926C119.466 16.898 119.919 16.884 120.432 16.884ZM120.432 17.836H120.11C118.141 17.836 117.156 18.256 117.156 19.096C117.156 19.46 117.287 19.726 117.548 19.894C117.809 20.0527 118.131 20.132 118.514 20.132C119.111 20.132 119.578 19.9547 119.914 19.6C120.259 19.236 120.432 18.7647 120.432 18.186V17.836ZM127.001 14.364V15.442H125.237V18.9C125.237 19.3013 125.312 19.5907 125.461 19.768C125.61 19.936 125.848 20.02 126.175 20.02C126.464 20.02 126.721 19.964 126.945 19.852L126.987 20.93C126.651 21.0513 126.278 21.112 125.867 21.112C125.242 21.112 124.761 20.9393 124.425 20.594C124.098 20.2393 123.935 19.7213 123.935 19.04V15.442H122.661V14.364H123.935V12.46H125.237V14.364H127.001ZM129.691 14.364V21H128.375V14.364H129.691ZM129.915 11.97C129.915 12.2033 129.826 12.404 129.649 12.572C129.481 12.7307 129.275 12.81 129.033 12.81C128.79 12.81 128.585 12.7307 128.417 12.572C128.249 12.404 128.165 12.2033 128.165 11.97C128.165 11.7367 128.249 11.536 128.417 11.368C128.585 11.2 128.79 11.116 129.033 11.116C129.275 11.116 129.481 11.2 129.649 11.368C129.826 11.5267 129.915 11.7273 129.915 11.97ZM137.682 15.162C138.363 15.8153 138.704 16.6507 138.704 17.668C138.704 18.6853 138.358 19.5253 137.668 20.188C136.986 20.8507 136.137 21.182 135.12 21.182C134.102 21.182 133.253 20.8507 132.572 20.188C131.89 19.5253 131.55 18.6853 131.55 17.668C131.55 16.6507 131.886 15.8153 132.558 15.162C133.239 14.5087 134.093 14.182 135.12 14.182C136.146 14.182 137 14.5087 137.682 15.162ZM136.73 19.376C137.131 18.9 137.332 18.3307 137.332 17.668C137.332 17.0053 137.131 16.4407 136.73 15.974C136.338 15.5073 135.801 15.274 135.12 15.274C134.438 15.274 133.897 15.5073 133.496 15.974C133.104 16.4407 132.908 17.0053 132.908 17.668C132.908 18.3307 133.104 18.9 133.496 19.376C133.897 19.8427 134.438 20.076 135.12 20.076C135.801 20.076 136.338 19.8427 136.73 19.376ZM140.473 14.364H141.719C141.756 14.812 141.775 15.176 141.775 15.456H141.817C141.985 15.092 142.269 14.7887 142.671 14.546C143.072 14.3033 143.506 14.182 143.973 14.182C144.785 14.182 145.401 14.434 145.821 14.938C146.241 15.442 146.451 16.0907 146.451 16.884V21H145.135V17.318C145.135 15.9647 144.631 15.288 143.623 15.288C143.1 15.288 142.671 15.4887 142.335 15.89C142.008 16.2913 141.845 16.8187 141.845 17.472V21H140.529V15.792C140.529 15.2227 140.51 14.7467 140.473 14.364ZM160.647 15.708L158.743 18.662L161.011 21H159.177L157.945 19.698C157.161 20.6873 156.158 21.182 154.935 21.182C154.03 21.182 153.264 20.9347 152.639 20.44C152.023 19.936 151.715 19.2453 151.715 18.368C151.715 17.136 152.457 16.1793 153.941 15.498C153.185 14.7047 152.807 13.9487 152.807 13.23C152.807 12.474 153.064 11.886 153.577 11.466C154.09 11.046 154.716 10.836 155.453 10.836C156.181 10.836 156.788 11.0413 157.273 11.452C157.768 11.8627 158.015 12.432 158.015 13.16C158.015 14.2333 157.306 15.106 155.887 15.778L157.861 17.808L159.107 15.708H160.647ZM156.741 13.188C156.741 12.8333 156.62 12.5347 156.377 12.292C156.144 12.0493 155.84 11.928 155.467 11.928C155.084 11.928 154.767 12.0493 154.515 12.292C154.263 12.5347 154.137 12.852 154.137 13.244C154.137 13.8133 154.464 14.3873 155.117 14.966C156.2 14.49 156.741 13.8973 156.741 13.188ZM157.063 18.816L154.711 16.352C153.647 16.8 153.115 17.4627 153.115 18.34C153.115 18.844 153.297 19.2593 153.661 19.586C154.034 19.9033 154.468 20.062 154.963 20.062C155.803 20.062 156.503 19.6467 157.063 18.816Z" fill="#A4A4A4"/>
<path d="M75.57 27.424V43H73.392V27.424H75.57ZM81.2787 34.288C81.5573 33.7013 81.99 33.2247 82.5767 32.858C83.1633 32.4767 83.838 32.286 84.6007 32.286C86.1553 32.286 87.2333 32.9827 87.8347 34.376C88.1867 33.716 88.678 33.2027 89.3087 32.836C89.9393 32.4693 90.6287 32.286 91.3767 32.286C92.6527 32.286 93.6207 32.682 94.2807 33.474C94.9407 34.266 95.2707 35.2853 95.2707 36.532V43H93.2027V37.214C93.2027 35.0873 92.4327 34.024 90.8927 34.024C90.0127 34.024 89.3527 34.354 88.9127 35.014C88.4727 35.674 88.2527 36.4587 88.2527 37.368V43H86.1847V36.796C86.1847 34.948 85.4513 34.024 83.9847 34.024C83.222 34.024 82.584 34.3393 82.0707 34.97C81.572 35.6007 81.3227 36.4293 81.3227 37.456V43H79.2547V34.816C79.2547 33.9213 79.2253 33.1733 79.1667 32.572H81.1247C81.1833 33.276 81.2127 33.848 81.2127 34.288H81.2787ZM100.83 41.438V48.28H98.7625V32.572H100.786V34.2H100.852C101.204 33.628 101.71 33.166 102.37 32.814C103.03 32.462 103.778 32.286 104.614 32.286C106.14 32.286 107.386 32.814 108.354 33.87C109.337 34.9113 109.828 36.2093 109.828 37.764C109.828 39.3333 109.344 40.646 108.376 41.702C107.408 42.758 106.14 43.286 104.57 43.286C103.822 43.286 103.118 43.1247 102.458 42.802C101.798 42.4647 101.278 42.01 100.896 41.438H100.83ZM106.77 40.448C107.386 39.7 107.694 38.8053 107.694 37.764C107.694 36.7227 107.386 35.8353 106.77 35.102C106.154 34.3687 105.304 34.002 104.218 34.002C103.192 34.002 102.348 34.376 101.688 35.124C101.028 35.872 100.698 36.7593 100.698 37.786C100.698 38.8127 101.028 39.7 101.688 40.448C102.348 41.1813 103.192 41.548 104.218 41.548C105.304 41.548 106.154 41.1813 106.77 40.448ZM114.818 26.368V43H112.75V26.368H114.818ZM119.851 36.862H126.055C126.025 35.9967 125.761 35.2927 125.263 34.75C124.764 34.1927 124.053 33.914 123.129 33.914C122.249 33.914 121.501 34.2 120.885 34.772C120.269 35.344 119.924 36.0407 119.851 36.862ZM128.145 37.698C128.145 38.006 128.137 38.2407 128.123 38.402H119.851C119.88 39.2967 120.225 40.052 120.885 40.668C121.545 41.2693 122.329 41.57 123.239 41.57C124.544 41.57 125.556 41.042 126.275 39.986L127.727 41.152C126.627 42.5747 125.131 43.286 123.239 43.286C121.64 43.286 120.32 42.78 119.279 41.768C118.252 40.756 117.739 39.436 117.739 37.808C117.739 36.1947 118.252 34.8747 119.279 33.848C120.305 32.8067 121.589 32.286 123.129 32.286C124.669 32.286 125.886 32.7773 126.781 33.76C127.69 34.728 128.145 36.0407 128.145 37.698ZM133.056 34.288C133.335 33.7013 133.767 33.2247 134.354 32.858C134.941 32.4767 135.615 32.286 136.378 32.286C137.933 32.286 139.011 32.9827 139.612 34.376C139.964 33.716 140.455 33.2027 141.086 32.836C141.717 32.4693 142.406 32.286 143.154 32.286C144.43 32.286 145.398 32.682 146.058 33.474C146.718 34.266 147.048 35.2853 147.048 36.532V43H144.98V37.214C144.98 35.0873 144.21 34.024 142.67 34.024C141.79 34.024 141.13 34.354 140.69 35.014C140.25 35.674 140.03 36.4587 140.03 37.368V43H137.962V36.796C137.962 34.948 137.229 34.024 135.762 34.024C134.999 34.024 134.361 34.3393 133.848 34.97C133.349 35.6007 133.1 36.4293 133.1 37.456V43H131.032V34.816C131.032 33.9213 131.003 33.1733 130.944 32.572H132.902C132.961 33.276 132.99 33.848 132.99 34.288H133.056ZM151.97 36.862H158.174C158.144 35.9967 157.88 35.2927 157.382 34.75C156.883 34.1927 156.172 33.914 155.248 33.914C154.368 33.914 153.62 34.2 153.004 34.772C152.388 35.344 152.043 36.0407 151.97 36.862ZM160.264 37.698C160.264 38.006 160.256 38.2407 160.242 38.402H151.97C151.999 39.2967 152.344 40.052 153.004 40.668C153.664 41.2693 154.448 41.57 155.358 41.57C156.663 41.57 157.675 41.042 158.394 39.986L159.846 41.152C158.746 42.5747 157.25 43.286 155.358 43.286C153.759 43.286 152.439 42.78 151.398 41.768C150.371 40.756 149.858 39.436 149.858 37.808C149.858 36.1947 150.371 34.8747 151.398 33.848C152.424 32.8067 153.708 32.286 155.248 32.286C156.788 32.286 158.005 32.7773 158.9 33.76C159.809 34.728 160.264 36.0407 160.264 37.698ZM163.063 32.572H165.021C165.08 33.276 165.109 33.848 165.109 34.288H165.175C165.439 33.716 165.886 33.2393 166.517 32.858C167.148 32.4767 167.83 32.286 168.563 32.286C169.839 32.286 170.807 32.682 171.467 33.474C172.127 34.266 172.457 35.2853 172.457 36.532V43H170.389V37.214C170.389 35.0873 169.597 34.024 168.013 34.024C167.192 34.024 166.517 34.3393 165.989 34.97C165.476 35.6007 165.219 36.4293 165.219 37.456V43H163.151V34.816C163.151 33.9213 163.122 33.1733 163.063 32.572ZM181.06 32.572V34.266H178.288V39.7C178.288 40.3307 178.405 40.7853 178.64 41.064C178.874 41.328 179.248 41.46 179.762 41.46C180.216 41.46 180.62 41.372 180.972 41.196L181.038 42.89C180.51 43.0807 179.923 43.176 179.278 43.176C178.295 43.176 177.54 42.9047 177.012 42.362C176.498 41.8047 176.242 40.9907 176.242 39.92V34.266H174.24V32.572H176.242V29.58H178.288V32.572H181.06ZM189.686 36.532V36.246C189.686 35.498 189.451 34.9333 188.982 34.552C188.527 34.156 187.904 33.958 187.112 33.958C185.939 33.958 184.949 34.3613 184.142 35.168L183.042 33.848C184.127 32.8067 185.55 32.286 187.31 32.286C188.747 32.286 189.833 32.6673 190.566 33.43C191.299 34.178 191.666 35.1607 191.666 36.378V40.932C191.666 41.8413 191.717 42.5307 191.82 43H189.95C189.833 42.5013 189.774 42.0027 189.774 41.504H189.708C188.931 42.6773 187.765 43.264 186.21 43.264C185.77 43.264 185.337 43.2053 184.912 43.088C184.487 42.9707 184.083 42.7947 183.702 42.56C183.321 42.3253 183.013 41.9953 182.778 41.57C182.543 41.13 182.426 40.624 182.426 40.052C182.426 39.4507 182.565 38.93 182.844 38.49C183.137 38.0353 183.504 37.6907 183.944 37.456C184.384 37.2067 184.941 37.016 185.616 36.884C186.305 36.7373 186.951 36.642 187.552 36.598C188.168 36.554 188.879 36.532 189.686 36.532ZM189.686 38.028H189.18C186.085 38.028 184.538 38.688 184.538 40.008C184.538 40.58 184.743 40.998 185.154 41.262C185.565 41.5113 186.071 41.636 186.672 41.636C187.611 41.636 188.344 41.3573 188.872 40.8C189.415 40.228 189.686 39.4873 189.686 38.578V38.028ZM200.009 32.572V34.266H197.237V39.7C197.237 40.3307 197.354 40.7853 197.589 41.064C197.824 41.328 198.198 41.46 198.711 41.46C199.166 41.46 199.569 41.372 199.921 41.196L199.987 42.89C199.459 43.0807 198.872 43.176 198.227 43.176C197.244 43.176 196.489 42.9047 195.961 42.362C195.448 41.8047 195.191 40.9907 195.191 39.92V34.266H193.189V32.572H195.191V29.58H197.237V32.572H200.009ZM204.235 32.572V43H202.167V32.572H204.235ZM204.587 28.81C204.587 29.1767 204.448 29.492 204.169 29.756C203.905 30.0053 203.583 30.13 203.201 30.13C202.82 30.13 202.497 30.0053 202.233 29.756C201.969 29.492 201.837 29.1767 201.837 28.81C201.837 28.4433 201.969 28.128 202.233 27.864C202.497 27.6 202.82 27.468 203.201 27.468C203.583 27.468 203.905 27.6 204.169 27.864C204.448 28.1133 204.587 28.4287 204.587 28.81ZM216.793 33.826C217.863 34.8527 218.399 36.1653 218.399 37.764C218.399 39.3627 217.856 40.6827 216.771 41.724C215.7 42.7653 214.365 43.286 212.767 43.286C211.168 43.286 209.833 42.7653 208.763 41.724C207.692 40.6827 207.157 39.3627 207.157 37.764C207.157 36.1653 207.685 34.8527 208.741 33.826C209.811 32.7993 211.153 32.286 212.767 32.286C214.38 32.286 215.722 32.7993 216.793 33.826ZM215.297 40.448C215.927 39.7 216.243 38.8053 216.243 37.764C216.243 36.7227 215.927 35.8353 215.297 35.102C214.681 34.3687 213.837 34.002 212.767 34.002C211.696 34.002 210.845 34.3687 210.215 35.102C209.599 35.8353 209.291 36.7227 209.291 37.764C209.291 38.8053 209.599 39.7 210.215 40.448C210.845 41.1813 211.696 41.548 212.767 41.548C213.837 41.548 214.681 41.1813 215.297 40.448ZM221.178 32.572H223.136C223.195 33.276 223.224 33.848 223.224 34.288H223.29C223.554 33.716 224.002 33.2393 224.632 32.858C225.263 32.4767 225.945 32.286 226.678 32.286C227.954 32.286 228.922 32.682 229.582 33.474C230.242 34.266 230.572 35.2853 230.572 36.532V43H228.504V37.214C228.504 35.0873 227.712 34.024 226.128 34.024C225.307 34.024 224.632 34.3393 224.104 34.97C223.591 35.6007 223.334 36.4293 223.334 37.456V43H221.266V34.816C221.266 33.9213 221.237 33.1733 221.178 32.572Z" fill="#6A6A6A"/>
<rect x="1" y="4" width="48" height="43.6897" rx="3" stroke="#6A6A6A" stroke-width="2"/>
<path d="M43.1036 20.2414L43.1036 40.931" stroke="#6A6A6A" stroke-width="2" stroke-linecap="round" stroke-linejoin="round"/>
<path d="M43.1036 9.89655L43.1036 16.7931" stroke="#6A6A6A" stroke-width="2" stroke-linecap="round" stroke-linejoin="round"/>
<path d="M0.43103 30.1552H6.03448L9.91379 34.0345" stroke="#6A6A6A" stroke-width="2" stroke-linejoin="round"/>
<path d="M0 25.4138H27.5862" stroke="#6A6A6A" stroke-width="2" stroke-linejoin="round"/>
<path d="M0.862061 20.6724H16.8103L20.2586 17.2241" stroke="#6A6A6A" stroke-width="2" stroke-linejoin="round"/>
<circle cx="28.4484" cy="25.4138" r="1.58621" stroke="#6A6A6A" stroke-width="2" stroke-linejoin="round"/>
<circle cx="11.207" cy="34.8966" r="1.58621" stroke="#6A6A6A" stroke-width="2" stroke-linejoin="round"/>
<circle cx="21.5517" cy="15.931" r="1.58621" stroke="#6A6A6A" stroke-width="2" stroke-linejoin="round"/>
</svg>
