<svg xmlns="http://www.w3.org/2000/svg" width="211" height="47" fill="none" style=""><rect id="backgroundrect" width="100%" height="100%" x="0" y="0" fill="none" stroke="none"/>
















<g class="currentLayer" style=""><title>Layer 1</title><path d="M78.612 9.97L77.632 10.922C77.4267 10.642 77.1513 10.418 76.806 10.25C76.47 10.082 76.1013 9.998 75.7 9.998C75.196 9.998 74.748 10.138 74.356 10.418C73.964 10.6887 73.768 11.0853 73.768 11.608C73.768 11.8693 73.8147 12.0933 73.908 12.28C74.0013 12.4573 74.16 12.616 74.384 12.756C74.608 12.8867 74.8087 12.9893 74.986 13.064C75.1633 13.1293 75.434 13.2227 75.798 13.344C76.162 13.456 76.4373 13.5493 76.624 13.624C76.82 13.6893 77.072 13.806 77.38 13.974C77.688 14.142 77.9213 14.3193 78.08 14.506C78.248 14.6833 78.3927 14.9213 78.514 15.22C78.6447 15.5187 78.71 15.8593 78.71 16.242C78.71 17.2127 78.374 17.9593 77.702 18.482C77.0393 18.9953 76.232 19.252 75.28 19.252C74.636 19.252 74.02 19.1307 73.432 18.888C72.8533 18.636 72.382 18.2767 72.018 17.81L73.096 16.9C73.3293 17.2453 73.642 17.5253 74.034 17.74C74.4353 17.9547 74.86 18.062 75.308 18.062C75.8307 18.062 76.2927 17.9173 76.694 17.628C77.0953 17.3293 77.296 16.9093 77.296 16.368C77.296 16.1347 77.2493 15.9247 77.156 15.738C77.0627 15.5513 76.96 15.402 76.848 15.29C76.736 15.178 76.554 15.066 76.302 14.954C76.05 14.8327 75.8447 14.744 75.686 14.688C75.5367 14.632 75.2893 14.5527 74.944 14.45C74.5707 14.3287 74.2533 14.212 73.992 14.1C73.74 13.9787 73.474 13.8153 73.194 13.61C72.9233 13.3953 72.718 13.1247 72.578 12.798C72.438 12.4713 72.368 12.0933 72.368 11.664C72.368 11.0387 72.5407 10.5067 72.886 10.068C73.2313 9.62 73.6513 9.30267 74.146 9.116C74.65 8.92933 75.1913 8.836 75.77 8.836C76.3393 8.836 76.876 8.93867 77.38 9.144C77.8933 9.34933 78.304 9.62467 78.612 9.97ZM86.3027 13.162C86.984 13.8153 87.3247 14.6507 87.3247 15.668C87.3247 16.6853 86.9794 17.5253 86.2887 18.188C85.6074 18.8507 84.758 19.182 83.7407 19.182C82.7234 19.182 81.874 18.8507 81.1927 18.188C80.5114 17.5253 80.1707 16.6853 80.1707 15.668C80.1707 14.6507 80.5067 13.8153 81.1787 13.162C81.86 12.5087 82.714 12.182 83.7407 12.182C84.7674 12.182 85.6214 12.5087 86.3027 13.162ZM85.3507 17.376C85.752 16.9 85.9527 16.3307 85.9527 15.668C85.9527 15.0053 85.752 14.4407 85.3507 13.974C84.9587 13.5073 84.422 13.274 83.7407 13.274C83.0594 13.274 82.518 13.5073 82.1167 13.974C81.7247 14.4407 81.5287 15.0053 81.5287 15.668C81.5287 16.3307 81.7247 16.9 82.1167 17.376C82.518 17.8427 83.0594 18.076 83.7407 18.076C84.422 18.076 84.9587 17.8427 85.3507 17.376ZM92.2716 12.364V13.442H90.7316V19H89.4156V13.442H88.0996V12.364H89.4156V10.978C89.4156 10.1473 89.6163 9.48467 90.0176 8.99C90.419 8.49533 91.0443 8.248 91.8936 8.248C92.211 8.248 92.4863 8.28067 92.7196 8.346L92.5656 9.48C92.3416 9.41467 92.1223 9.382 91.9076 9.382C91.1236 9.382 90.7316 9.914 90.7316 10.978V12.364H92.2716ZM96.5265 12.364V13.442H94.7625V16.9C94.7625 17.3013 94.8372 17.5907 94.9865 17.768C95.1359 17.936 95.3739 18.02 95.7005 18.02C95.9899 18.02 96.2465 17.964 96.4705 17.852L96.5125 18.93C96.1765 19.0513 95.8032 19.112 95.3925 19.112C94.7672 19.112 94.2865 18.9393 93.9505 18.594C93.6239 18.2393 93.4605 17.7213 93.4605 17.04V13.442H92.1865V12.364H93.4605V10.46H94.7625V12.364H96.5265ZM96.948 12.364H98.376L99.874 17.432H99.902L101.484 12.364H102.87L104.48 17.432H104.508L106.006 12.364H107.392L105.194 19H103.822L102.184 14.016H102.156L100.532 19H99.16L96.948 12.364ZM112.844 14.884V14.702C112.844 14.226 112.695 13.8667 112.396 13.624C112.107 13.372 111.71 13.246 111.206 13.246C110.459 13.246 109.829 13.5027 109.316 14.016L108.616 13.176C109.307 12.5133 110.212 12.182 111.332 12.182C112.247 12.182 112.937 12.4247 113.404 12.91C113.871 13.386 114.104 14.0113 114.104 14.786V17.684C114.104 18.2627 114.137 18.7013 114.202 19H113.012C112.937 18.6827 112.9 18.3653 112.9 18.048H112.858C112.363 18.7947 111.621 19.168 110.632 19.168C110.352 19.168 110.077 19.1307 109.806 19.056C109.535 18.9813 109.279 18.8693 109.036 18.72C108.793 18.5707 108.597 18.3607 108.448 18.09C108.299 17.81 108.224 17.488 108.224 17.124C108.224 16.7413 108.313 16.41 108.49 16.13C108.677 15.8407 108.91 15.6213 109.19 15.472C109.47 15.3133 109.825 15.192 110.254 15.108C110.693 15.0147 111.103 14.954 111.486 14.926C111.878 14.898 112.331 14.884 112.844 14.884ZM112.844 15.836H112.522C110.553 15.836 109.568 16.256 109.568 17.096C109.568 17.46 109.699 17.726 109.96 17.894C110.221 18.0527 110.543 18.132 110.926 18.132C111.523 18.132 111.99 17.9547 112.326 17.6C112.671 17.236 112.844 16.7647 112.844 16.186V15.836ZM116.302 13.792C116.302 13.2227 116.283 12.7467 116.246 12.364H117.492C117.529 12.812 117.548 13.1853 117.548 13.484H117.59C117.777 13.092 118.052 12.7793 118.416 12.546C118.78 12.3033 119.181 12.182 119.62 12.182C119.825 12.182 119.998 12.2007 120.138 12.238L120.082 13.456C119.895 13.4093 119.695 13.386 119.48 13.386C118.883 13.386 118.421 13.5913 118.094 14.002C117.777 14.4127 117.618 14.9167 117.618 15.514V19H116.302V13.792ZM122.038 15.094H125.986C125.967 14.5433 125.799 14.0953 125.482 13.75C125.165 13.3953 124.712 13.218 124.124 13.218C123.564 13.218 123.088 13.4 122.696 13.764C122.304 14.128 122.085 14.5713 122.038 15.094ZM127.316 15.626C127.316 15.822 127.311 15.9713 127.302 16.074H122.038C122.057 16.6433 122.276 17.124 122.696 17.516C123.116 17.8987 123.615 18.09 124.194 18.09C125.025 18.09 125.669 17.754 126.126 17.082L127.05 17.824C126.35 18.7293 125.398 19.182 124.194 19.182C123.177 19.182 122.337 18.86 121.674 18.216C121.021 17.572 120.694 16.732 120.694 15.696C120.694 14.6693 121.021 13.8293 121.674 13.176C122.327 12.5133 123.144 12.182 124.124 12.182C125.104 12.182 125.879 12.4947 126.448 13.12C127.027 13.736 127.316 14.5713 127.316 15.626Z" fill="#ffffff" id="svg_1" class="" fill-opacity="1"/><path d="M73.392 40V24.424H78.738C79.7793 24.424 80.7767 24.578 81.73 24.886C82.698 25.1793 83.5927 25.6267 84.414 26.228C85.2353 26.8293 85.8953 27.6507 86.394 28.692C86.8927 29.7187 87.142 30.892 87.142 32.212C87.142 33.488 86.8927 34.6393 86.394 35.666C85.8953 36.6927 85.2353 37.514 84.414 38.13C83.6073 38.7313 82.7127 39.1933 81.73 39.516C80.762 39.8387 79.7647 40 78.738 40H73.392ZM75.57 26.316V38.086H78.298C80.2193 38.086 81.7813 37.5653 82.984 36.524C84.2013 35.468 84.81 34.0307 84.81 32.212C84.81 30.3347 84.2087 28.8827 83.006 27.856C81.8033 26.8293 80.234 26.316 78.298 26.316H75.57ZM91.4483 33.862H97.6523C97.623 32.9967 97.359 32.2927 96.8603 31.75C96.3617 31.1927 95.6503 30.914 94.7263 30.914C93.8463 30.914 93.0983 31.2 92.4823 31.772C91.8663 32.344 91.5217 33.0407 91.4483 33.862ZM99.7423 34.698C99.7423 35.006 99.735 35.2407 99.7203 35.402H91.4483C91.4777 36.2967 91.8223 37.052 92.4823 37.668C93.1423 38.2693 93.927 38.57 94.8363 38.57C96.1417 38.57 97.1537 38.042 97.8723 36.986L99.3243 38.152C98.2243 39.5747 96.7283 40.286 94.8363 40.286C93.2377 40.286 91.9177 39.78 90.8763 38.768C89.8497 37.756 89.3363 36.436 89.3363 34.808C89.3363 33.1947 89.8497 31.8747 90.8763 30.848C91.903 29.8067 93.1863 29.286 94.7263 29.286C96.2663 29.286 97.4837 29.7773 98.3783 30.76C99.2877 31.728 99.7423 33.0407 99.7423 34.698ZM111.716 29.572L107.536 40H105.292L101.046 29.572H103.334L106.392 37.778H106.436L109.516 29.572H111.716ZM115.146 33.862H121.35C121.32 32.9967 121.056 32.2927 120.558 31.75C120.059 31.1927 119.348 30.914 118.424 30.914C117.544 30.914 116.796 31.2 116.18 31.772C115.564 32.344 115.219 33.0407 115.146 33.862ZM123.44 34.698C123.44 35.006 123.432 35.2407 123.418 35.402H115.146C115.175 36.2967 115.52 37.052 116.18 37.668C116.84 38.2693 117.624 38.57 118.534 38.57C119.839 38.57 120.851 38.042 121.57 36.986L123.022 38.152C121.922 39.5747 120.426 40.286 118.534 40.286C116.935 40.286 115.615 39.78 114.574 38.768C113.547 37.756 113.034 36.436 113.034 34.808C113.034 33.1947 113.547 31.8747 114.574 30.848C115.6 29.8067 116.884 29.286 118.424 29.286C119.964 29.286 121.181 29.7773 122.076 30.76C122.985 31.728 123.44 33.0407 123.44 34.698ZM128.439 23.368V40H126.371V23.368H128.439ZM140.996 30.826C142.066 31.8527 142.602 33.1653 142.602 34.764C142.602 36.3627 142.059 37.6827 140.974 38.724C139.903 39.7653 138.568 40.286 136.97 40.286C135.371 40.286 134.036 39.7653 132.966 38.724C131.895 37.6827 131.36 36.3627 131.36 34.764C131.36 33.1653 131.888 31.8527 132.944 30.826C134.014 29.7993 135.356 29.286 136.97 29.286C138.583 29.286 139.925 29.7993 140.996 30.826ZM139.5 37.448C140.13 36.7 140.446 35.8053 140.446 34.764C140.446 33.7227 140.13 32.8353 139.5 32.102C138.884 31.3687 138.04 31.002 136.97 31.002C135.899 31.002 135.048 31.3687 134.418 32.102C133.802 32.8353 133.494 33.7227 133.494 34.764C133.494 35.8053 133.802 36.7 134.418 37.448C135.048 38.1813 135.899 38.548 136.97 38.548C138.04 38.548 138.884 38.1813 139.5 37.448ZM147.538 38.438V45.28H145.47V29.572H147.494V31.2H147.56C147.912 30.628 148.418 30.166 149.078 29.814C149.738 29.462 150.486 29.286 151.322 29.286C152.847 29.286 154.094 29.814 155.062 30.87C156.044 31.9113 156.536 33.2093 156.536 34.764C156.536 36.3333 156.052 37.646 155.084 38.702C154.116 39.758 152.847 40.286 151.278 40.286C150.53 40.286 149.826 40.1247 149.166 39.802C148.506 39.4647 147.985 39.01 147.604 38.438H147.538ZM153.478 37.448C154.094 36.7 154.402 35.8053 154.402 34.764C154.402 33.7227 154.094 32.8353 153.478 32.102C152.862 31.3687 152.011 31.002 150.926 31.002C149.899 31.002 149.056 31.376 148.396 32.124C147.736 32.872 147.406 33.7593 147.406 34.786C147.406 35.8127 147.736 36.7 148.396 37.448C149.056 38.1813 149.899 38.548 150.926 38.548C152.011 38.548 152.862 38.1813 153.478 37.448ZM161.437 31.288C161.716 30.7013 162.148 30.2247 162.735 29.858C163.322 29.4767 163.996 29.286 164.759 29.286C166.314 29.286 167.392 29.9827 167.993 31.376C168.345 30.716 168.836 30.2027 169.467 29.836C170.098 29.4693 170.787 29.286 171.535 29.286C172.811 29.286 173.779 29.682 174.439 30.474C175.099 31.266 175.429 32.2853 175.429 33.532V40H173.361V34.214C173.361 32.0873 172.591 31.024 171.051 31.024C170.171 31.024 169.511 31.354 169.071 32.014C168.631 32.674 168.411 33.4587 168.411 34.368V40H166.343V33.796C166.343 31.948 165.61 31.024 164.143 31.024C163.38 31.024 162.742 31.3393 162.229 31.97C161.73 32.6007 161.481 33.4293 161.481 34.456V40H159.413V31.816C159.413 30.9213 159.384 30.1733 159.325 29.572H161.283C161.342 30.276 161.371 30.848 161.371 31.288H161.437ZM180.351 33.862H186.555C186.525 32.9967 186.261 32.2927 185.763 31.75C185.264 31.1927 184.553 30.914 183.629 30.914C182.749 30.914 182.001 31.2 181.385 31.772C180.769 32.344 180.424 33.0407 180.351 33.862ZM188.645 34.698C188.645 35.006 188.637 35.2407 188.623 35.402H180.351C180.38 36.2967 180.725 37.052 181.385 37.668C182.045 38.2693 182.829 38.57 183.739 38.57C185.044 38.57 186.056 38.042 186.775 36.986L188.227 38.152C187.127 39.5747 185.631 40.286 183.739 40.286C182.14 40.286 180.82 39.78 179.779 38.768C178.752 37.756 178.239 36.436 178.239 34.808C178.239 33.1947 178.752 31.8747 179.779 30.848C180.805 29.8067 182.089 29.286 183.629 29.286C185.169 29.286 186.386 29.7773 187.281 30.76C188.19 31.728 188.645 33.0407 188.645 34.698ZM191.444 29.572H193.402C193.461 30.276 193.49 30.848 193.49 31.288H193.556C193.82 30.716 194.267 30.2393 194.898 29.858C195.529 29.4767 196.211 29.286 196.944 29.286C198.22 29.286 199.188 29.682 199.848 30.474C200.508 31.266 200.838 32.2853 200.838 33.532V40H198.77V34.214C198.77 32.0873 197.978 31.024 196.394 31.024C195.573 31.024 194.898 31.3393 194.37 31.97C193.857 32.6007 193.6 33.4293 193.6 34.456V40H191.532V31.816C191.532 30.9213 191.503 30.1733 191.444 29.572ZM209.441 29.572V31.266H206.669V36.7C206.669 37.3307 206.786 37.7853 207.021 38.064C207.255 38.328 207.629 38.46 208.143 38.46C208.597 38.46 209.001 38.372 209.353 38.196L209.419 39.89C208.891 40.0807 208.304 40.176 207.659 40.176C206.676 40.176 205.921 39.9047 205.393 39.362C204.879 38.8047 204.623 37.9907 204.623 36.92V31.266H202.621V29.572H204.623V26.58H206.669V29.572H209.441Z" fill="#1b96c5" id="svg_2" class="" fill-opacity="1"/><rect x="1" y="1" width="48" height="44.4911994934082" rx="3" stroke="#ffffff" stroke-width="2" id="svg_3" class="" stroke-opacity="1"/><path d="M7.01755 31.1404H14.9123" stroke="#ffffff" stroke-width="2" stroke-linecap="round" stroke-linejoin="round" id="svg_4" class="" stroke-opacity="1"/><path d="M7.01755 5.26318H7.89474" stroke="#ffffff" stroke-width="2" stroke-linecap="round" stroke-linejoin="round" id="svg_5" class="" stroke-opacity="1"/><path d="M12.2807 5.26318H13.1579" stroke="#ffffff" stroke-width="2" stroke-linecap="round" stroke-linejoin="round" id="svg_6" class="" stroke-opacity="1"/><path d="M17.5439 5.26318H18.4211" stroke="#ffffff" stroke-width="2" stroke-linecap="round" stroke-linejoin="round" id="svg_7" class="" stroke-opacity="1"/><path d="M7.01755 35.5263H14.9123" stroke="#ffffff" stroke-width="2" stroke-linecap="round" stroke-linejoin="round" id="svg_8" class="" stroke-opacity="1"/><path d="M21.0526 31.1404H28.9474" stroke="#ffffff" stroke-width="2" stroke-linecap="round" stroke-linejoin="round" id="svg_9" class="" stroke-opacity="1"/><path d="M21.0526 35.5263H28.9474" stroke="#ffffff" stroke-width="2" stroke-linecap="round" stroke-linejoin="round" id="svg_10" class="" stroke-opacity="1"/><path d="M35.0877 31.1404H42.9825" stroke="#ffffff" stroke-width="2" stroke-linecap="round" stroke-linejoin="round" id="svg_11" class="" stroke-opacity="1"/><path d="M35.0877 35.5263H42.9825" stroke="#ffffff" stroke-width="2" stroke-linecap="round" stroke-linejoin="round" id="svg_12" class="" stroke-opacity="1"/><path d="M0.87719 9.64911H48.2456" stroke="#ffffff" stroke-width="2" id="svg_13" class="" stroke-opacity="1"/><rect x="7.140349864959717" y="17.66670036315918" width="7.649119853973389" height="7.649119853973389" rx="1" stroke="#ffffff" stroke-width="2" id="svg_14" class="" stroke-opacity="1"/><rect x="21.175399780273438" y="17.66670036315918" width="7.649119853973389" height="7.649119853973389" rx="1" stroke="#ffffff" stroke-width="2" id="svg_15" class="" stroke-opacity="1"/><rect x="35.21049880981445" y="17.66670036315918" width="7.649119853973389" height="7.649119853973389" rx="1" stroke="#ffffff" stroke-width="2" id="svg_16" class="" stroke-opacity="1"/></g></svg>