<svg width="25" height="25" viewBox="0 0 25 25" fill="none" xmlns="http://www.w3.org/2000/svg">
<path d="M12.2165 0C5.48035 0 0 5.48035 0 12.2165C0 18.9522 5.48035 24.433 12.2165 24.433C18.9522 24.433 24.433 18.9522 24.433 12.2165C24.433 5.48035 18.9531 0 12.2165 0ZM15.2546 12.6466H13.2671C13.2671 15.822 13.2671 19.7306 13.2671 19.7306H10.322C10.322 19.7306 10.322 15.8599 10.322 12.6466H8.92199V10.1429H10.322V8.5234C10.322 7.36356 10.8731 5.55121 13.2942 5.55121L15.4766 5.55957V7.98998C15.4766 7.98998 14.1504 7.98998 13.8925 7.98998C13.6347 7.98998 13.2681 8.11891 13.2681 8.67201V10.1433H15.512L15.2546 12.6466Z" fill="#319DC8"/>
</svg>
