<svg width="25" height="24" viewBox="0 0 25 24" fill="none" xmlns="http://www.w3.org/2000/svg">
<path d="M22.7941 6.08433C21.7016 4.21259 20.2198 2.73073 18.3483 1.63842C16.4764 0.546045 14.4329 0 12.2163 0C9.99997 0 7.9558 0.546213 6.08433 1.63842C4.21259 2.73067 2.73084 4.21259 1.63842 6.08433C0.546157 7.95602 0 9.99992 0 12.216C0 14.8779 0.776643 17.2717 2.33032 19.3977C3.88383 21.524 5.89073 22.9953 8.35086 23.8117C8.63723 23.8649 8.84922 23.8275 8.98705 23.7005C9.12494 23.5734 9.1938 23.4142 9.1938 23.2235C9.1938 23.1917 9.19107 22.9055 9.18578 22.3646C9.18032 21.8237 9.17776 21.3518 9.17776 20.9491L8.81189 21.0124C8.57862 21.0552 8.28434 21.0733 7.92905 21.0681C7.57394 21.0632 7.20528 21.026 6.82359 20.9568C6.44173 20.8882 6.08656 20.7291 5.7578 20.4799C5.4292 20.2307 5.19593 19.9045 5.05804 19.5018L4.89898 19.1358C4.79296 18.8921 4.62604 18.6214 4.398 18.3246C4.16997 18.0276 3.93937 17.8263 3.7061 17.7203L3.59473 17.6405C3.52052 17.5876 3.45166 17.5237 3.38798 17.4495C3.32435 17.3753 3.27672 17.3011 3.24491 17.2268C3.21304 17.1524 3.23945 17.0914 3.32441 17.0436C3.40937 16.9957 3.56292 16.9725 3.78572 16.9725L4.10373 17.02C4.31583 17.0625 4.57818 17.1895 4.89112 17.4017C5.2039 17.6137 5.46101 17.8894 5.66253 18.2286C5.90655 18.6635 6.20055 18.9949 6.54536 19.2229C6.88989 19.4509 7.23726 19.5648 7.58714 19.5648C7.93702 19.5648 8.23921 19.5382 8.49382 19.4855C8.74815 19.4324 8.98677 19.3527 9.20957 19.2468C9.30501 18.536 9.56485 17.9899 9.98888 17.6082C9.38451 17.5447 8.84114 17.4491 8.35849 17.3219C7.87613 17.1945 7.37766 16.9878 6.86343 16.7012C6.34892 16.415 5.9221 16.0596 5.58286 15.6356C5.24356 15.2114 4.96511 14.6545 4.74788 13.9654C4.53055 13.276 4.42185 12.4808 4.42185 11.5794C4.42185 10.2961 4.84081 9.204 5.67857 8.30256C5.28613 7.33771 5.32318 6.2561 5.78983 5.05782C6.09737 4.96227 6.55344 5.03397 7.15782 5.27248C7.7623 5.5111 8.20489 5.71551 8.48602 5.88499C8.76715 6.05442 8.9924 6.19799 9.1621 6.31443C10.1485 6.03882 11.1664 5.90098 12.2162 5.90098C13.2659 5.90098 14.2841 6.03882 15.2706 6.31443L15.875 5.93285C16.2883 5.67824 16.7764 5.44491 17.3381 5.23281C17.9002 5.02082 18.3299 4.96244 18.627 5.05798C19.104 6.25632 19.1465 7.33788 18.754 8.30272C19.5917 9.20416 20.0108 10.2965 20.0108 11.5796C20.0108 12.4809 19.9017 13.2787 19.6847 13.9734C19.4674 14.6682 19.1866 15.2245 18.8421 15.6436C18.4971 16.0626 18.0676 16.4152 17.5534 16.7014C17.039 16.9878 16.5404 17.1944 16.058 17.3218C15.5754 17.4492 15.0321 17.5449 14.4277 17.6085C14.9789 18.0855 15.2546 18.8385 15.2546 19.8671V23.2231C15.2546 23.4137 15.3209 23.5729 15.4536 23.7001C15.5861 23.8271 15.7954 23.8644 16.0818 23.8112C18.5423 22.9949 20.5492 21.5235 22.1026 19.3973C23.6559 17.2712 24.4328 14.8775 24.4328 12.2155C24.4323 9.99975 23.8858 7.95602 22.7941 6.08433Z" fill="#319DC8"/>
</svg>
