<svg width="25" height="25" viewBox="0 0 25 25" fill="none" xmlns="http://www.w3.org/2000/svg">
<path d="M12.2165 0C5.46994 0 0 5.46994 0 12.2165C0 18.9631 5.46994 24.433 12.2165 24.433C18.9631 24.433 24.433 18.9631 24.433 12.2165C24.433 5.46843 18.9631 0 12.2165 0ZM9.16237 18.1339H6.10825V7.4444H9.16237V18.1339ZM7.72997 6.78931C6.93895 6.78931 6.29913 6.14793 6.29913 5.35691C6.29913 4.56589 6.94051 3.92451 7.72997 3.92451C8.521 3.92602 9.16237 4.5674 9.16237 5.35691C9.16237 6.14793 8.521 6.78931 7.72997 6.78931ZM19.8518 18.1339H16.7977V11.5247C16.7977 10.7505 16.5762 10.2084 15.6249 10.2084C14.0474 10.2084 13.7435 11.5247 13.7435 11.5247V18.1339H10.6894V7.4444H13.7435V8.46599C14.1803 8.13159 15.2706 7.44591 16.7977 7.44591C17.7872 7.44591 19.8518 8.03841 19.8518 11.6178V18.1339Z" fill="#319DC8"/>
</svg>
