<svg width="168" height="46" viewBox="0 0 168 46" fill="none" xmlns="http://www.w3.org/2000/svg">
<path fill-rule="evenodd" clip-rule="evenodd" d="M23.4901 45.1086C19.8852 42.7385 14.4312 39.8782 9.6856 36.4253L9.6343 18.7749L23.4901 27.8852L37.3459 18.7749L37.2946 36.4253C32.549 39.8782 27.095 42.7385 23.4901 45.1086ZM3.3764 30.738C1.318 28.2566 0 25.5365 0 22.5544C0 19.5722 1.318 16.8521 3.3764 14.3707V30.738ZM8.0814 9.8982C13.1532 5.895 19.4708 2.6427 23.4901 0C27.5094 2.6426 33.8271 5.895 38.8988 9.8982L23.4901 20.0293L8.0814 9.8982ZM43.6038 14.3707C45.6622 16.8521 46.9802 19.5722 46.9802 22.5544C46.9802 25.5365 45.6622 28.2566 43.6038 30.738V14.3707Z" fill="#FEFEFE"/>
<path d="M60.4121 29.1875V13.5703H64.7576L68.8163 24.6656H68.8825L72.8971 13.5703H77.2646V29.1875H74.5073V16.6364H74.4632L69.7207 29.1875H67.7796L63.1032 16.6364H63.0591V29.1875H60.4121ZM90.7201 19.9451L88.9113 21.5333C88.7054 21.2392 88.3966 20.9929 87.9848 20.7944C87.5731 20.5958 87.154 20.4966 86.7275 20.4966C85.8158 20.4966 85.1026 20.8385 84.5879 21.5223C84.0732 22.2061 83.8158 22.9965 83.8158 23.8935C83.8158 24.8053 84.0805 25.5994 84.6099 26.2758C85.1393 26.9523 85.8746 27.2905 86.8158 27.2905C87.7863 27.2905 88.5289 26.9743 89.0436 26.342L90.698 28.0184C89.7863 29.0037 88.4848 29.4963 86.7937 29.4963C85.1761 29.4963 83.8158 28.989 82.7129 27.9743C81.61 26.9596 81.0586 25.5994 81.0586 23.8935C81.0586 22.2171 81.6027 20.8642 82.6909 19.8348C83.7791 18.8054 85.1246 18.2907 86.7275 18.2907C87.5069 18.2907 88.2642 18.4378 88.9995 18.7319C89.7348 19.026 90.3083 19.4304 90.7201 19.9451ZM107.065 15.5555L104.948 17.232C104.565 16.7026 104.047 16.3018 103.392 16.0298C102.738 15.7577 102.073 15.6217 101.396 15.6217C99.808 15.6217 98.5103 16.1658 97.5029 17.254C96.4956 18.3422 95.992 19.7025 95.992 21.3348C95.992 23.0406 96.4736 24.4266 97.4368 25.4928C98.4 26.5589 99.683 27.092 101.286 27.092C102.933 27.092 104.198 26.489 105.08 25.2832L107.308 26.8493C105.852 28.6728 103.837 29.5845 101.264 29.5845C98.8228 29.5845 96.8228 28.8162 95.264 27.2795C93.7053 25.7427 92.9259 23.7612 92.9259 21.3348C92.9259 18.879 93.7236 16.9048 95.3192 15.4122C96.9147 13.9195 98.9404 13.1732 101.396 13.1732C102.484 13.1732 103.554 13.3754 104.606 13.7798C105.657 14.1842 106.477 14.7761 107.065 15.5555ZM109.117 23.8494C109.117 22.2171 109.668 20.8826 110.771 19.8459C111.874 18.8091 113.241 18.2907 114.874 18.2907C116.506 18.2907 117.874 18.8091 118.977 19.8459C120.08 20.8826 120.631 22.2171 120.631 23.8494C120.631 25.4964 120.076 26.8493 118.966 27.9081C117.855 28.9669 116.491 29.4963 114.874 29.4963C113.256 29.4963 111.892 28.9669 110.782 27.9081C109.672 26.8493 109.117 25.4964 109.117 23.8494ZM112.602 21.4671C112.072 22.1436 111.808 22.9377 111.808 23.8494C111.808 24.7612 112.072 25.5626 112.602 26.2538C113.131 26.9449 113.889 27.2905 114.874 27.2905C115.859 27.2905 116.616 26.9449 117.146 26.2538C117.675 25.5626 117.94 24.7612 117.94 23.8494C117.94 22.9377 117.675 22.1436 117.146 21.4671C116.616 20.7907 115.859 20.4525 114.874 20.4525C113.889 20.4525 113.131 20.7907 112.602 21.4671ZM136.932 18.2907C138.226 18.2907 139.2 18.7062 139.855 19.537C140.509 20.3679 140.836 21.3789 140.836 22.57V29.1875H138.189V23.32C138.189 21.4377 137.528 20.4966 136.204 20.4966C135.439 20.4966 134.859 20.787 134.461 21.3679C134.064 21.9487 133.866 22.6289 133.866 23.4083V29.1875H131.219V22.7906C131.219 22.0995 131.053 21.5443 130.723 21.1252C130.392 20.7061 129.903 20.4966 129.256 20.4966C128.506 20.4966 127.932 20.7796 127.535 21.3458C127.138 21.912 126.94 22.5847 126.94 23.3641V29.1875H124.293V18.5996H126.807V20.298H126.851C127.101 19.7245 127.513 19.2466 128.087 18.8643C128.66 18.4819 129.344 18.2907 130.138 18.2907C131.682 18.2907 132.785 18.9598 133.447 20.298C134.182 18.9598 135.344 18.2907 136.932 18.2907ZM145.071 12.5115H147.718V19.9451H147.785C148.667 18.8422 149.851 18.2907 151.336 18.2907C152.836 18.2907 154.067 18.8201 155.031 19.8789C155.994 20.9377 156.476 22.2612 156.476 23.8494C156.476 25.4376 156.001 26.7758 155.053 27.864C154.104 28.9522 152.843 29.4963 151.27 29.4963C150.52 29.4963 149.814 29.3309 149.152 29C148.49 28.6691 147.983 28.2022 147.63 27.5993H147.586V29.1875H145.071V12.5115ZM152.979 26.2538C153.516 25.5626 153.784 24.7612 153.784 23.8494C153.784 22.9377 153.516 22.1436 152.979 21.4671C152.443 20.7907 151.696 20.4525 150.74 20.4525C149.814 20.4525 149.064 20.8054 148.49 21.5112C147.917 22.2171 147.63 23.0112 147.63 23.8935C147.63 24.7759 147.917 25.5626 148.49 26.2538C149.064 26.9449 149.814 27.2905 150.74 27.2905C151.696 27.2905 152.443 26.9449 152.979 26.2538ZM167.659 19.901L165.939 21.423C165.689 21.0995 165.358 20.8274 164.946 20.6069C164.534 20.3863 164.093 20.276 163.622 20.276C163.152 20.276 162.751 20.3716 162.42 20.5627C162.089 20.7539 161.924 21.0407 161.924 21.423C161.924 21.7907 162.093 22.0627 162.431 22.2392C162.77 22.4156 163.365 22.6068 164.218 22.8127C164.674 22.9156 165.078 23.0369 165.431 23.1766C165.784 23.3163 166.141 23.5038 166.501 23.7391C166.861 23.9744 167.141 24.2832 167.339 24.6656C167.538 25.0479 167.637 25.4817 167.637 25.967C167.637 27.1729 167.222 28.0625 166.391 28.636C165.56 29.2096 164.505 29.4963 163.225 29.4963C162.387 29.4963 161.578 29.3419 160.799 29.0331C160.02 28.7243 159.38 28.2978 158.88 27.7537L160.622 26.1214C161.299 27.0037 162.203 27.4449 163.336 27.4449C163.792 27.4449 164.189 27.342 164.527 27.1361C164.865 26.9302 165.034 26.614 165.034 26.1876C165.034 25.7758 164.854 25.4707 164.494 25.2722C164.133 25.0736 163.505 24.8714 162.608 24.6656C161.652 24.4303 160.891 24.0957 160.325 23.6619C159.759 23.2281 159.475 22.5627 159.475 21.6657C159.475 20.5627 159.887 19.7245 160.711 19.151C161.534 18.5775 162.527 18.2907 163.689 18.2907C164.483 18.2907 165.24 18.4305 165.961 18.7099C166.681 18.9893 167.247 19.3863 167.659 19.901Z" fill="#FEFEFE" stroke="#FEFEFE" stroke-width="0.0762" stroke-miterlimit="22.9256"/>
<path d="M65.488 35.2862L64.9271 35.6883C64.8071 35.4978 64.6325 35.3408 64.4032 35.2174C64.1739 35.0939 63.9252 35.0322 63.6571 35.0322C63.0926 35.0322 62.6358 35.2209 62.2865 35.5984C61.9373 35.9758 61.7627 36.4539 61.7627 37.0324C61.7627 37.6039 61.9355 38.0784 62.2812 38.4559C62.627 38.8333 63.082 39.0221 63.6465 39.0221C64.218 39.0221 64.666 38.8069 64.9906 38.3765L65.5303 38.7787C65.0647 39.3502 64.4367 39.6359 63.6465 39.6359C62.8563 39.6359 62.2177 39.3907 61.7309 38.9004C61.2441 38.41 61.0007 37.7873 61.0007 37.0324C61.0007 36.2775 61.2441 35.6548 61.7309 35.1645C62.2177 34.6741 62.8563 34.4289 63.6465 34.4289C63.9993 34.4289 64.3432 34.503 64.6784 34.6512C65.0135 34.7993 65.2834 35.011 65.488 35.2862ZM77.0448 35.1697C77.5422 35.6636 77.7909 36.2845 77.7909 37.0324C77.7909 37.7803 77.5422 38.4012 77.0448 38.8951C76.5474 39.389 75.9142 39.6359 75.1451 39.6359C74.3831 39.6359 73.7534 39.389 73.256 38.8951C72.7586 38.4012 72.5099 37.7803 72.5099 37.0324C72.5099 36.2845 72.7586 35.6636 73.256 35.1697C73.7534 34.6759 74.3831 34.4289 75.1451 34.4289C75.9142 34.4289 76.5474 34.6759 77.0448 35.1697ZM76.5104 38.4559C76.8561 38.0784 77.0289 37.6039 77.0289 37.0324C77.0289 36.4609 76.8561 35.9847 76.5104 35.6037C76.1646 35.2227 75.7095 35.0322 75.1451 35.0322C74.5877 35.0322 74.1362 35.2227 73.7904 35.6037C73.4447 35.9847 73.2719 36.4609 73.2719 37.0324C73.2719 37.5969 73.4447 38.0696 73.7904 38.4506C74.1362 38.8316 74.5877 39.0221 75.1451 39.0221C75.7095 39.0221 76.1646 38.8333 76.5104 38.4559ZM85.5114 34.5559H86.1993C86.2275 34.9087 86.2416 35.1909 86.2416 35.4026H86.2628C86.3968 35.1204 86.6244 34.8875 86.9454 34.7041C87.2664 34.5206 87.6033 34.4289 87.9561 34.4289C88.5699 34.4289 89.0374 34.6124 89.3584 34.9792C89.6794 35.3461 89.8399 35.8436 89.8399 36.4715V39.5089H89.1203V36.7678C89.1203 36.2104 89.0197 35.7818 88.8186 35.482C88.6176 35.1821 88.2701 35.0322 87.7762 35.0322C87.3599 35.0322 87.0054 35.1997 86.7126 35.5349C86.4198 35.87 86.2734 36.348 86.2734 36.9689V39.5089H85.5537V35.646C85.5537 35.2227 85.5396 34.8593 85.5114 34.5559ZM101.106 35.3179L100.555 35.7307C100.45 35.519 100.287 35.3497 100.069 35.2227C99.8499 35.0957 99.6065 35.0322 99.3384 35.0322C99.0491 35.0322 98.8021 35.0974 98.5975 35.228C98.3929 35.3585 98.2906 35.5507 98.2906 35.8047C98.2906 36.0305 98.3823 36.2069 98.5658 36.3339C98.7492 36.4609 99.0526 36.5667 99.4759 36.6514C100.062 36.7714 100.494 36.9477 100.772 37.1806C101.051 37.4134 101.19 37.7203 101.19 38.1013C101.19 38.6234 101.009 39.0097 100.645 39.2602C100.282 39.5107 99.8428 39.6359 99.3278 39.6359C98.4599 39.6359 97.8073 39.3149 97.3699 38.6728L97.9414 38.2495C98.0754 38.4753 98.2677 38.6605 98.5182 38.8051C98.7686 38.9497 99.035 39.0221 99.3172 39.0221C99.6559 39.0221 99.9346 38.9533 100.153 38.8157C100.372 38.6781 100.481 38.4576 100.481 38.1542C100.481 37.9073 100.367 37.7168 100.137 37.5827C99.9081 37.4487 99.5359 37.3217 99.0209 37.2017C98.8374 37.1594 98.6787 37.1135 98.5446 37.0642C98.4106 37.0148 98.2642 36.9407 98.1054 36.8419C97.9467 36.7431 97.8232 36.6108 97.735 36.445C97.6468 36.2792 97.6027 36.087 97.6027 35.8682C97.6027 35.3955 97.7738 35.0375 98.116 34.794C98.4582 34.5506 98.8762 34.4289 99.3701 34.4289C99.7229 34.4289 100.062 34.5083 100.386 34.667C100.711 34.8258 100.951 35.0427 101.106 35.3179ZM113.123 39.5089H112.435C112.407 39.1561 112.393 38.8739 112.393 38.6622H112.372C112.238 38.9445 112.01 39.1773 111.689 39.3607C111.368 39.5442 111.031 39.6359 110.678 39.6359C110.065 39.6359 109.597 39.4525 109.276 39.0856C108.955 38.7187 108.795 38.2213 108.795 37.5933V34.5559H109.514V37.297C109.514 37.8544 109.615 38.283 109.816 38.5829C110.017 38.8827 110.364 39.0327 110.858 39.0327C111.275 39.0327 111.629 38.8651 111.922 38.5299C112.215 38.1948 112.361 37.7168 112.361 37.0959V34.5559H113.081V38.4188C113.081 38.8422 113.095 39.2055 113.123 39.5089ZM121.944 31.5079V39.5089H121.225V31.5079H121.944ZM132.321 34.5559V35.1592H130.924V38.0484C130.924 38.3941 130.988 38.6322 131.115 38.7628C131.242 38.8933 131.425 38.9586 131.665 38.9586C131.869 38.9586 132.078 38.9057 132.289 38.7998L132.321 39.4242C132.06 39.523 131.778 39.5724 131.474 39.5724C131.136 39.5724 130.839 39.4736 130.585 39.2761C130.331 39.0785 130.204 38.7363 130.204 38.2495V35.1592H129.178V34.5559H130.204V33.1589H130.924V34.5559H132.321ZM140.391 34.5559V39.5089H139.671V34.5559H140.391ZM140.385 32.2911C140.488 32.3899 140.539 32.5098 140.539 32.6509C140.539 32.792 140.488 32.912 140.385 33.0108C140.283 33.1095 140.165 33.1589 140.031 33.1589C139.897 33.1589 139.779 33.1095 139.676 33.0108C139.574 32.912 139.523 32.792 139.523 32.6509C139.523 32.5098 139.574 32.3899 139.676 32.2911C139.779 32.1923 139.897 32.1429 140.031 32.1429C140.165 32.1429 140.283 32.1923 140.385 32.2911ZM148.482 34.5559H149.169C149.198 34.9087 149.212 35.1909 149.212 35.4026H149.233C149.367 35.1204 149.595 34.8875 149.916 34.7041C150.237 34.5206 150.573 34.4289 150.926 34.4289C151.54 34.4289 152.008 34.6124 152.329 34.9792C152.65 35.3461 152.81 35.8436 152.81 36.4715V39.5089H152.09V36.7678C152.09 36.2104 151.99 35.7818 151.789 35.482C151.588 35.1821 151.24 35.0322 150.746 35.0322C150.33 35.0322 149.976 35.1997 149.683 35.5349C149.39 35.87 149.244 36.348 149.244 36.9689V39.5089H148.524V35.646C148.524 35.2227 148.51 34.8593 148.482 34.5559ZM160.636 41.0541L161.155 40.5037C161.36 40.7648 161.635 40.9817 161.98 41.1546C162.326 41.3275 162.682 41.4139 163.049 41.4139C163.72 41.4139 164.21 41.234 164.52 40.8741C164.831 40.5143 164.986 40.0451 164.986 39.4666V38.5352H164.965C164.781 38.8316 164.515 39.0679 164.166 39.2443C163.817 39.4207 163.459 39.5089 163.092 39.5089C162.33 39.5089 161.712 39.2725 161.24 38.7998C160.767 38.3271 160.531 37.7239 160.531 36.9901C160.531 36.2704 160.769 35.6636 161.245 35.1697C161.721 34.6759 162.337 34.4289 163.092 34.4289C163.466 34.4289 163.824 34.5153 164.166 34.6882C164.508 34.8611 164.774 35.1027 164.965 35.4132H164.986V34.5559H165.706V39.4666C165.706 39.77 165.665 40.0592 165.584 40.3344C165.503 40.6096 165.371 40.883 165.187 41.1546C165.004 41.4262 164.727 41.6432 164.356 41.8055C163.986 41.9678 163.54 42.0489 163.018 42.0489C162.566 42.0489 162.13 41.9607 161.711 41.7843C161.291 41.6079 160.933 41.3645 160.636 41.0541ZM161.795 35.5931C161.46 35.967 161.293 36.4256 161.293 36.9689C161.293 37.5122 161.46 37.969 161.795 38.3394C162.13 38.7099 162.587 38.8951 163.166 38.8951C163.723 38.8951 164.18 38.7169 164.536 38.3606C164.893 38.0043 165.071 37.5404 165.071 36.9689C165.071 36.4397 164.889 35.9847 164.526 35.6037C164.162 35.2227 163.709 35.0322 163.166 35.0322C162.587 35.0322 162.13 35.2191 161.795 35.5931Z" fill="#FEFEFE"/>
</svg>
