<svg width="79" height="27" viewBox="0 0 79 27" fill="none" xmlns="http://www.w3.org/2000/svg">
<path d="M5.928 2.32L5.244 2.872C4.844 2.304 4.26 2.02 3.492 2.02C3.02 2.02 2.6 2.16 2.232 2.44C1.864 2.72 1.68 3.112 1.68 3.616C1.68 3.824 1.716 4.012 1.788 4.18C1.868 4.348 1.952 4.48 2.04 4.576C2.128 4.672 2.272 4.772 2.472 4.876C2.68 4.98 2.84 5.052 2.952 5.092C3.072 5.132 3.264 5.196 3.528 5.284C3.8 5.372 3.976 5.432 4.056 5.464C4.144 5.488 4.304 5.548 4.536 5.644C4.776 5.74 4.94 5.824 5.028 5.896C5.124 5.96 5.252 6.06 5.412 6.196C5.58 6.332 5.696 6.468 5.76 6.604C5.832 6.74 5.896 6.908 5.952 7.108C6.016 7.308 6.048 7.528 6.048 7.768C6.048 8.56 5.772 9.168 5.22 9.592C4.668 10.008 4.02 10.216 3.276 10.216C2.74 10.216 2.232 10.108 1.752 9.892C1.28 9.676 0.896 9.364 0.6 8.956L1.344 8.404C1.544 8.724 1.812 8.984 2.148 9.184C2.484 9.376 2.864 9.472 3.288 9.472C3.776 9.472 4.212 9.328 4.596 9.04C4.98 8.744 5.172 8.34 5.172 7.828C5.172 7.596 5.128 7.392 5.04 7.216C4.96 7.032 4.868 6.884 4.764 6.772C4.66 6.66 4.496 6.552 4.272 6.448C4.056 6.336 3.876 6.256 3.732 6.208C3.596 6.16 3.384 6.092 3.096 6.004C2.76 5.9 2.476 5.796 2.244 5.692C2.02 5.588 1.788 5.448 1.548 5.272C1.308 5.096 1.124 4.872 0.996 4.6C0.876 4.32 0.816 3.996 0.816 3.628C0.816 3.108 0.956 2.668 1.236 2.308C1.524 1.94 1.864 1.68 2.256 1.528C2.656 1.368 3.08 1.288 3.528 1.288C4.064 1.288 4.544 1.388 4.968 1.588C5.392 1.78 5.712 2.024 5.928 2.32ZM12.9414 5.08C13.5094 5.64 13.7934 6.344 13.7934 7.192C13.7934 8.04 13.5094 8.744 12.9414 9.304C12.3814 9.864 11.6654 10.144 10.7934 10.144C9.92944 10.144 9.21344 9.864 8.64544 9.304C8.08544 8.744 7.80544 8.04 7.80544 7.192C7.80544 6.344 8.08544 5.64 8.64544 5.08C9.21344 4.52 9.92944 4.24 10.7934 4.24C11.6654 4.24 12.3814 4.52 12.9414 5.08ZM12.3414 8.812C12.7334 8.38 12.9294 7.84 12.9294 7.192C12.9294 6.544 12.7334 6.004 12.3414 5.572C11.9494 5.14 11.4334 4.924 10.7934 4.924C10.1614 4.924 9.64944 5.14 9.25744 5.572C8.86544 6.004 8.66944 6.544 8.66944 7.192C8.66944 7.832 8.86544 8.368 9.25744 8.8C9.64944 9.232 10.1614 9.448 10.7934 9.448C11.4334 9.448 11.9494 9.236 12.3414 8.812ZM18.2854 4.384V5.068H16.9654V10H16.1494V5.068H14.9734V4.384H16.1494V2.848C16.1494 2.2 16.3094 1.696 16.6294 1.336C16.9494 0.968 17.4254 0.784 18.0574 0.784C18.3134 0.784 18.5374 0.812 18.7294 0.868L18.5854 1.588C18.3934 1.532 18.2054 1.504 18.0214 1.504C17.6134 1.504 17.3334 1.628 17.1814 1.876C17.0374 2.124 16.9654 2.48 16.9654 2.944V4.384H18.2854ZM22.1998 4.384V5.068H20.6158V8.344C20.6158 8.736 20.6878 9.008 20.8318 9.16C20.9758 9.304 21.1838 9.376 21.4558 9.376C21.6878 9.376 21.9238 9.316 22.1638 9.196L22.1998 9.904C21.9038 10.016 21.5838 10.072 21.2398 10.072C20.8558 10.072 20.5198 9.96 20.2318 9.736C19.9438 9.512 19.7998 9.124 19.7998 8.572V5.068H18.6358V4.384H19.7998V2.8H20.6158V4.384H22.1998ZM23.0684 4.384H23.9444L25.3004 8.944H25.3244L26.8364 4.384H27.6284L29.1644 8.944H29.1884L30.5324 4.384H31.3964L29.6204 10H28.7324L27.2324 5.452H27.2084L25.7324 10H24.8444L23.0684 4.384ZM36.6895 6.556V6.376C36.6895 5.408 36.1895 4.924 35.1895 4.924C34.5175 4.924 33.9615 5.144 33.5215 5.584L33.0655 5.044C33.6015 4.508 34.3375 4.24 35.2735 4.24C35.9135 4.24 36.4375 4.416 36.8455 4.768C37.2535 5.12 37.4575 5.624 37.4575 6.28V8.74C37.4575 9.244 37.4895 9.664 37.5535 10H36.8215C36.7655 9.68 36.7375 9.376 36.7375 9.088H36.7135C36.2255 9.792 35.5455 10.144 34.6735 10.144C34.1695 10.144 33.7175 10.004 33.3175 9.724C32.9255 9.436 32.7295 9.008 32.7295 8.44C32.7295 8.16 32.7775 7.916 32.8735 7.708C32.9695 7.492 33.1135 7.316 33.3055 7.18C33.4975 7.044 33.7055 6.936 33.9295 6.856C34.1535 6.768 34.4295 6.704 34.7575 6.664C35.0855 6.616 35.3895 6.588 35.6695 6.58C35.9575 6.564 36.2975 6.556 36.6895 6.556ZM36.6895 7.192H36.4495C36.0655 7.192 35.7215 7.208 35.4175 7.24C35.1215 7.264 34.8215 7.316 34.5175 7.396C34.2215 7.476 33.9895 7.6 33.8215 7.768C33.6535 7.936 33.5695 8.148 33.5695 8.404C33.5695 8.772 33.6975 9.044 33.9535 9.22C34.2095 9.388 34.5215 9.472 34.8895 9.472C35.4415 9.472 35.8775 9.292 36.1975 8.932C36.5255 8.572 36.6895 8.132 36.6895 7.612V7.192ZM39.9197 5.62C39.9197 5.14 39.9037 4.728 39.8717 4.384H40.6517C40.6837 4.784 40.6997 5.104 40.6997 5.344H40.7237C40.8837 5.016 41.1237 4.752 41.4437 4.552C41.7717 4.344 42.1317 4.24 42.5237 4.24C42.7397 4.24 42.9197 4.26 43.0637 4.3L42.9557 5.068C42.8277 5.02 42.6357 4.996 42.3797 4.996C41.9077 4.996 41.5157 5.176 41.2037 5.536C40.8917 5.888 40.7357 6.416 40.7357 7.12V10H39.9197V5.62ZM44.849 6.76H48.677C48.653 6.216 48.477 5.776 48.149 5.44C47.829 5.096 47.385 4.924 46.817 4.924C46.289 4.924 45.837 5.108 45.461 5.476C45.093 5.836 44.889 6.264 44.849 6.76ZM49.505 7.024C49.505 7.184 49.501 7.312 49.493 7.408H44.837C44.853 7.976 45.057 8.46 45.449 8.86C45.841 9.252 46.321 9.448 46.889 9.448C47.281 9.448 47.637 9.356 47.957 9.172C48.277 8.98 48.521 8.748 48.689 8.476L49.301 8.956C48.677 9.748 47.873 10.144 46.889 10.144C46.057 10.144 45.365 9.864 44.813 9.304C44.261 8.744 43.985 8.04 43.985 7.192C43.985 6.352 44.257 5.652 44.801 5.092C45.345 4.524 46.017 4.24 46.817 4.24C47.665 4.24 48.325 4.504 48.797 5.032C49.269 5.552 49.505 6.216 49.505 7.024Z" fill="#A4A4A4"/>
<path d="M1.128 24V15.504H3.948C4.492 15.504 5.024 15.596 5.544 15.78C6.064 15.956 6.54 16.216 6.972 16.56C7.404 16.896 7.752 17.344 8.016 17.904C8.28 18.456 8.412 19.072 8.412 19.752C8.412 20.432 8.28 21.052 8.016 21.612C7.752 22.164 7.404 22.612 6.972 22.956C6.54 23.292 6.064 23.552 5.544 23.736C5.024 23.912 4.492 24 3.948 24H1.128ZM1.992 16.272V23.232H3.708C4.324 23.232 4.876 23.136 5.364 22.944C5.86 22.744 6.26 22.48 6.564 22.152C6.868 21.816 7.1 21.444 7.26 21.036C7.42 20.628 7.5 20.2 7.5 19.752C7.5 19.304 7.42 18.876 7.26 18.468C7.1 18.06 6.868 17.692 6.564 17.364C6.26 17.028 5.86 16.764 5.364 16.572C4.876 16.372 4.324 16.272 3.708 16.272H1.992ZM10.978 20.76H14.806C14.782 20.216 14.606 19.776 14.278 19.44C13.958 19.096 13.514 18.924 12.946 18.924C12.418 18.924 11.966 19.108 11.59 19.476C11.222 19.836 11.018 20.264 10.978 20.76ZM15.634 21.024C15.634 21.184 15.63 21.312 15.622 21.408H10.966C10.982 21.976 11.186 22.46 11.578 22.86C11.97 23.252 12.45 23.448 13.018 23.448C13.41 23.448 13.766 23.356 14.086 23.172C14.406 22.98 14.65 22.748 14.818 22.476L15.43 22.956C14.806 23.748 14.002 24.144 13.018 24.144C12.186 24.144 11.494 23.864 10.942 23.304C10.39 22.744 10.114 22.04 10.114 21.192C10.114 20.352 10.386 19.652 10.93 19.092C11.474 18.524 12.146 18.24 12.946 18.24C13.794 18.24 14.454 18.504 14.926 19.032C15.398 19.552 15.634 20.216 15.634 21.024ZM22.3332 18.384L20.0532 24H19.1532L16.8612 18.384H17.7732L19.5972 23.136H19.6212L21.4572 18.384H22.3332ZM24.4246 20.76H28.2526C28.2286 20.216 28.0526 19.776 27.7246 19.44C27.4046 19.096 26.9606 18.924 26.3926 18.924C25.8646 18.924 25.4126 19.108 25.0366 19.476C24.6686 19.836 24.4646 20.264 24.4246 20.76ZM29.0806 21.024C29.0806 21.184 29.0766 21.312 29.0686 21.408H24.4126C24.4286 21.976 24.6326 22.46 25.0246 22.86C25.4166 23.252 25.8966 23.448 26.4646 23.448C26.8566 23.448 27.2126 23.356 27.5326 23.172C27.8526 22.98 28.0966 22.748 28.2646 22.476L28.8766 22.956C28.2526 23.748 27.4486 24.144 26.4646 24.144C25.6326 24.144 24.9406 23.864 24.3886 23.304C23.8366 22.744 23.5606 22.04 23.5606 21.192C23.5606 20.352 23.8326 19.652 24.3766 19.092C24.9206 18.524 25.5926 18.24 26.3926 18.24C27.2406 18.24 27.9006 18.504 28.3726 19.032C28.8446 19.552 29.0806 20.216 29.0806 21.024ZM32.0358 14.928V24H31.2198V14.928H32.0358ZM39.3072 19.08C39.8752 19.64 40.1592 20.344 40.1592 21.192C40.1592 22.04 39.8752 22.744 39.3072 23.304C38.7472 23.864 38.0312 24.144 37.1592 24.144C36.2952 24.144 35.5792 23.864 35.0112 23.304C34.4512 22.744 34.1712 22.04 34.1712 21.192C34.1712 20.344 34.4512 19.64 35.0112 19.08C35.5792 18.52 36.2952 18.24 37.1592 18.24C38.0312 18.24 38.7472 18.52 39.3072 19.08ZM38.7072 22.812C39.0992 22.38 39.2952 21.84 39.2952 21.192C39.2952 20.544 39.0992 20.004 38.7072 19.572C38.3152 19.14 37.7992 18.924 37.1592 18.924C36.5272 18.924 36.0152 19.14 35.6232 19.572C35.2312 20.004 35.0352 20.544 35.0352 21.192C35.0352 21.832 35.2312 22.368 35.6232 22.8C36.0152 23.232 36.5272 23.448 37.1592 23.448C37.7992 23.448 38.3152 23.236 38.7072 22.812ZM43.0912 23.052V26.88H42.2752V18.384H43.0912V19.356H43.1272C43.3512 19.004 43.6552 18.732 44.0392 18.54C44.4232 18.34 44.8232 18.24 45.2392 18.24C46.1032 18.24 46.8032 18.524 47.3392 19.092C47.8752 19.652 48.1432 20.352 48.1432 21.192C48.1432 22.032 47.8752 22.736 47.3392 23.304C46.8032 23.864 46.1032 24.144 45.2392 24.144C44.8312 24.144 44.4352 24.048 44.0512 23.856C43.6672 23.664 43.3592 23.396 43.1272 23.052H43.0912ZM46.7032 22.812C47.0872 22.38 47.2792 21.84 47.2792 21.192C47.2792 20.544 47.0872 20.004 46.7032 19.572C46.3272 19.14 45.8112 18.924 45.1552 18.924C44.5312 18.924 44.0152 19.14 43.6072 19.572C43.1992 20.004 42.9952 20.544 42.9952 21.192C42.9952 21.84 43.1992 22.38 43.6072 22.812C44.0152 23.236 44.5312 23.448 45.1552 23.448C45.8112 23.448 46.3272 23.236 46.7032 22.812ZM51.0563 19.344C51.2243 19.016 51.4723 18.752 51.8003 18.552C52.1363 18.344 52.5043 18.24 52.9043 18.24C53.7523 18.24 54.3283 18.636 54.6323 19.428C55.0243 18.636 55.6803 18.24 56.6003 18.24C57.2963 18.24 57.8243 18.448 58.1843 18.864C58.5523 19.28 58.7363 19.844 58.7363 20.556V24H57.9203V20.892C57.9203 19.58 57.4363 18.924 56.4683 18.924C55.9243 18.924 55.5203 19.128 55.2563 19.536C55.0003 19.936 54.8723 20.428 54.8723 21.012V24H54.0563V20.724C54.0563 20.132 53.9563 19.684 53.7563 19.38C53.5643 19.076 53.2123 18.924 52.7003 18.924C52.2683 18.924 51.8883 19.116 51.5603 19.5C51.2323 19.876 51.0683 20.416 51.0683 21.12V24H50.2523V19.62C50.2523 19.14 50.2363 18.728 50.2043 18.384H50.9843C51.0163 18.784 51.0323 19.104 51.0323 19.344H51.0563ZM61.6621 20.76H65.4901C65.4661 20.216 65.2901 19.776 64.9621 19.44C64.6421 19.096 64.1981 18.924 63.6301 18.924C63.1021 18.924 62.6501 19.108 62.2741 19.476C61.9061 19.836 61.7021 20.264 61.6621 20.76ZM66.3181 21.024C66.3181 21.184 66.3141 21.312 66.3061 21.408H61.6501C61.6661 21.976 61.8701 22.46 62.2621 22.86C62.6541 23.252 63.1341 23.448 63.7021 23.448C64.0941 23.448 64.4501 23.356 64.7701 23.172C65.0901 22.98 65.3341 22.748 65.5021 22.476L66.1141 22.956C65.4901 23.748 64.6861 24.144 63.7021 24.144C62.8701 24.144 62.1781 23.864 61.6261 23.304C61.0741 22.744 60.7981 22.04 60.7981 21.192C60.7981 20.352 61.0701 19.652 61.6141 19.092C62.1581 18.524 62.8301 18.24 63.6301 18.24C64.4781 18.24 65.1381 18.504 65.6101 19.032C66.0821 19.552 66.3181 20.216 66.3181 21.024ZM68.3853 18.384H69.1653C69.1973 18.784 69.2133 19.104 69.2133 19.344H69.2373C69.3893 19.024 69.6453 18.76 70.0053 18.552C70.3733 18.344 70.7573 18.24 71.1573 18.24C71.8533 18.24 72.3813 18.448 72.7413 18.864C73.1093 19.28 73.2933 19.844 73.2933 20.556V24H72.4773V20.892C72.4773 20.26 72.3613 19.776 72.1293 19.44C71.9053 19.096 71.5133 18.924 70.9533 18.924C70.4813 18.924 70.0773 19.116 69.7413 19.5C69.4133 19.876 69.2493 20.416 69.2493 21.12V24H68.4333V19.62C68.4333 19.14 68.4173 18.728 68.3853 18.384ZM78.2979 18.384V19.068H76.7139V22.344C76.7139 22.736 76.7859 23.008 76.9299 23.16C77.0739 23.304 77.2819 23.376 77.5539 23.376C77.7859 23.376 78.0219 23.316 78.2619 23.196L78.2979 23.904C78.0019 24.016 77.6819 24.072 77.3379 24.072C76.9539 24.072 76.6179 23.96 76.3299 23.736C76.0419 23.512 75.8979 23.124 75.8979 22.572V19.068H74.7339V18.384H75.8979V16.8H76.7139V18.384H78.2979Z" fill="#6A6A6A"/>
</svg>
