<svg width="82" height="29" viewBox="0 0 82 29" fill="none" xmlns="http://www.w3.org/2000/svg">
<path d="M1.128 12V3.504H3.528C4.416 3.504 5.116 3.696 5.628 4.08C6.14 4.464 6.396 5.028 6.396 5.772C6.396 6.516 6.136 7.084 5.616 7.476C5.096 7.86 4.392 8.052 3.504 8.052H1.992V12H1.128ZM1.992 4.248V7.32H3.456C4.128 7.32 4.64 7.188 4.992 6.924C5.352 6.66 5.532 6.276 5.532 5.772C5.532 4.756 4.84 4.248 3.456 4.248H1.992ZM7.82672 7.62C7.82672 7.14 7.81072 6.728 7.77872 6.384H8.55872C8.59072 6.784 8.60672 7.104 8.60672 7.344H8.63072C8.79072 7.016 9.03072 6.752 9.35072 6.552C9.67872 6.344 10.0387 6.24 10.4307 6.24C10.6467 6.24 10.8267 6.26 10.9707 6.3L10.8627 7.068C10.7347 7.02 10.5427 6.996 10.2867 6.996C9.81472 6.996 9.42272 7.176 9.11072 7.536C8.79872 7.888 8.64272 8.416 8.64272 9.12V12H7.82672V7.62ZM17.028 7.08C17.596 7.64 17.88 8.344 17.88 9.192C17.88 10.04 17.596 10.744 17.028 11.304C16.468 11.864 15.752 12.144 14.88 12.144C14.016 12.144 13.3 11.864 12.732 11.304C12.172 10.744 11.892 10.04 11.892 9.192C11.892 8.344 12.172 7.64 12.732 7.08C13.3 6.52 14.016 6.24 14.88 6.24C15.752 6.24 16.468 6.52 17.028 7.08ZM16.428 10.812C16.82 10.38 17.016 9.84 17.016 9.192C17.016 8.544 16.82 8.004 16.428 7.572C16.036 7.14 15.52 6.924 14.88 6.924C14.248 6.924 13.736 7.14 13.344 7.572C12.952 8.004 12.756 8.544 12.756 9.192C12.756 9.832 12.952 10.368 13.344 10.8C13.736 11.232 14.248 11.448 14.88 11.448C15.52 11.448 16.036 11.236 16.428 10.812ZM24.6759 7.212L24.0399 7.668C23.9039 7.452 23.7039 7.276 23.4399 7.14C23.1839 6.996 22.9039 6.924 22.5999 6.924C21.9599 6.924 21.4399 7.14 21.0399 7.572C20.6479 7.996 20.4519 8.536 20.4519 9.192C20.4519 9.84 20.6479 10.38 21.0399 10.812C21.4319 11.236 21.9479 11.448 22.5879 11.448C23.2359 11.448 23.7439 11.204 24.1119 10.716L24.7239 11.172C24.1959 11.82 23.4839 12.144 22.5879 12.144C21.6919 12.144 20.9679 11.868 20.4159 11.316C19.8639 10.756 19.5879 10.048 19.5879 9.192C19.5879 8.336 19.8639 7.632 20.4159 7.08C20.9679 6.52 21.6919 6.24 22.5879 6.24C22.9879 6.24 23.3759 6.324 23.7519 6.492C24.1359 6.66 24.4439 6.9 24.6759 7.212ZM26.8119 8.76H30.6399C30.6159 8.216 30.4399 7.776 30.1119 7.44C29.7919 7.096 29.3479 6.924 28.7799 6.924C28.2519 6.924 27.7999 7.108 27.4239 7.476C27.0559 7.836 26.8519 8.264 26.8119 8.76ZM31.4679 9.024C31.4679 9.184 31.4639 9.312 31.4559 9.408H26.7999C26.8159 9.976 27.0199 10.46 27.4119 10.86C27.8039 11.252 28.2839 11.448 28.8519 11.448C29.2439 11.448 29.5999 11.356 29.9199 11.172C30.2399 10.98 30.4839 10.748 30.6519 10.476L31.2639 10.956C30.6399 11.748 29.8359 12.144 28.8519 12.144C28.0199 12.144 27.3279 11.864 26.7759 11.304C26.2239 10.744 25.9479 10.04 25.9479 9.192C25.9479 8.352 26.2199 7.652 26.7639 7.092C27.3079 6.524 27.9799 6.24 28.7799 6.24C29.6279 6.24 30.2879 6.504 30.7599 7.032C31.2319 7.552 31.4679 8.216 31.4679 9.024ZM37.1951 7.248L36.5711 7.716C36.4511 7.476 36.2671 7.284 36.0191 7.14C35.7711 6.996 35.4951 6.924 35.1911 6.924C34.8631 6.924 34.5831 7 34.3511 7.152C34.1191 7.296 34.0031 7.512 34.0031 7.8C34.0031 8.056 34.1071 8.256 34.3151 8.4C34.5231 8.544 34.8671 8.664 35.3471 8.76C36.0111 8.896 36.4991 9.096 36.8111 9.36C37.1311 9.624 37.2911 9.972 37.2911 10.404C37.2911 10.996 37.0831 11.436 36.6671 11.724C36.2591 12.004 35.7631 12.144 35.1791 12.144C34.1951 12.144 33.4551 11.78 32.9591 11.052L33.6071 10.572C33.7591 10.828 33.9751 11.04 34.2551 11.208C34.5431 11.368 34.8471 11.448 35.1671 11.448C35.5511 11.448 35.8671 11.372 36.1151 11.22C36.3631 11.06 36.4871 10.808 36.4871 10.464C36.4871 10.184 36.3551 9.968 36.0911 9.816C35.8351 9.664 35.4151 9.52 34.8311 9.384C34.6231 9.336 34.4431 9.284 34.2911 9.228C34.1391 9.172 33.9711 9.088 33.7871 8.976C33.6111 8.864 33.4711 8.716 33.3671 8.532C33.2711 8.34 33.2231 8.12 33.2231 7.872C33.2231 7.336 33.4151 6.932 33.7991 6.66C34.1911 6.38 34.6671 6.24 35.2271 6.24C35.6271 6.24 36.0111 6.332 36.3791 6.516C36.7471 6.692 37.0191 6.936 37.1951 7.248ZM42.8872 7.248L42.2632 7.716C42.1432 7.476 41.9592 7.284 41.7112 7.14C41.4632 6.996 41.1872 6.924 40.8832 6.924C40.5552 6.924 40.2752 7 40.0432 7.152C39.8112 7.296 39.6952 7.512 39.6952 7.8C39.6952 8.056 39.7992 8.256 40.0072 8.4C40.2152 8.544 40.5592 8.664 41.0392 8.76C41.7032 8.896 42.1912 9.096 42.5032 9.36C42.8232 9.624 42.9832 9.972 42.9832 10.404C42.9832 10.996 42.7752 11.436 42.3592 11.724C41.9512 12.004 41.4552 12.144 40.8712 12.144C39.8872 12.144 39.1472 11.78 38.6512 11.052L39.2992 10.572C39.4512 10.828 39.6672 11.04 39.9472 11.208C40.2352 11.368 40.5392 11.448 40.8592 11.448C41.2432 11.448 41.5592 11.372 41.8072 11.22C42.0552 11.06 42.1792 10.808 42.1792 10.464C42.1792 10.184 42.0472 9.968 41.7832 9.816C41.5272 9.664 41.1072 9.52 40.5232 9.384C40.3152 9.336 40.1352 9.284 39.9832 9.228C39.8312 9.172 39.6632 9.088 39.4792 8.976C39.3032 8.864 39.1632 8.716 39.0592 8.532C38.9632 8.34 38.9152 8.12 38.9152 7.872C38.9152 7.336 39.1072 6.932 39.4912 6.66C39.8832 6.38 40.3592 6.24 40.9192 6.24C41.3192 6.24 41.7032 6.332 42.0712 6.516C42.4392 6.692 42.7112 6.936 42.8872 7.248Z" fill="white"/>
<path d="M2.448 17.504L5.328 24.536H5.34L8.184 17.504H9.504V26H8.64V18.62H8.616L5.544 26H5.088L2.016 18.62H1.992V26H1.128V17.504H2.448ZM15.6089 22.556V22.376C15.6089 21.408 15.1089 20.924 14.1089 20.924C13.4369 20.924 12.8809 21.144 12.4409 21.584L11.9849 21.044C12.5209 20.508 13.2569 20.24 14.1929 20.24C14.8329 20.24 15.3569 20.416 15.7649 20.768C16.1729 21.12 16.3769 21.624 16.3769 22.28V24.74C16.3769 25.244 16.4089 25.664 16.4729 26H15.7409C15.6849 25.68 15.6569 25.376 15.6569 25.088H15.6329C15.1449 25.792 14.4649 26.144 13.5929 26.144C13.0889 26.144 12.6369 26.004 12.2369 25.724C11.8449 25.436 11.6489 25.008 11.6489 24.44C11.6489 24.16 11.6969 23.916 11.7929 23.708C11.8889 23.492 12.0329 23.316 12.2249 23.18C12.4169 23.044 12.6249 22.936 12.8489 22.856C13.0729 22.768 13.3489 22.704 13.6769 22.664C14.0049 22.616 14.3089 22.588 14.5889 22.58C14.8769 22.564 15.2169 22.556 15.6089 22.556ZM15.6089 23.192H15.3689C14.9849 23.192 14.6409 23.208 14.3369 23.24C14.0409 23.264 13.7409 23.316 13.4369 23.396C13.1409 23.476 12.9089 23.6 12.7409 23.768C12.5729 23.936 12.4889 24.148 12.4889 24.404C12.4889 24.772 12.6169 25.044 12.8729 25.22C13.1289 25.388 13.4409 25.472 13.8089 25.472C14.3609 25.472 14.7969 25.292 15.1169 24.932C15.4449 24.572 15.6089 24.132 15.6089 23.612V23.192ZM18.7911 20.384H19.5711C19.6031 20.784 19.6191 21.104 19.6191 21.344H19.6431C19.7951 21.024 20.0511 20.76 20.4111 20.552C20.7791 20.344 21.1631 20.24 21.5631 20.24C22.2591 20.24 22.7871 20.448 23.1471 20.864C23.5151 21.28 23.6991 21.844 23.6991 22.556V26H22.8831V22.892C22.8831 22.26 22.7671 21.776 22.5351 21.44C22.3111 21.096 21.9191 20.924 21.3591 20.924C20.8871 20.924 20.4831 21.116 20.1471 21.5C19.8191 21.876 19.6551 22.416 19.6551 23.12V26H18.8391V21.62C18.8391 21.14 18.8231 20.728 18.7911 20.384ZM29.7117 22.556V22.376C29.7117 21.408 29.2117 20.924 28.2117 20.924C27.5397 20.924 26.9837 21.144 26.5437 21.584L26.0877 21.044C26.6237 20.508 27.3597 20.24 28.2957 20.24C28.9357 20.24 29.4597 20.416 29.8677 20.768C30.2757 21.12 30.4797 21.624 30.4797 22.28V24.74C30.4797 25.244 30.5117 25.664 30.5757 26H29.8437C29.7877 25.68 29.7597 25.376 29.7597 25.088H29.7357C29.2477 25.792 28.5677 26.144 27.6957 26.144C27.1917 26.144 26.7397 26.004 26.3397 25.724C25.9477 25.436 25.7517 25.008 25.7517 24.44C25.7517 24.16 25.7997 23.916 25.8957 23.708C25.9917 23.492 26.1357 23.316 26.3277 23.18C26.5197 23.044 26.7277 22.936 26.9517 22.856C27.1757 22.768 27.4517 22.704 27.7797 22.664C28.1077 22.616 28.4117 22.588 28.6917 22.58C28.9797 22.564 29.3197 22.556 29.7117 22.556ZM29.7117 23.192H29.4717C29.0877 23.192 28.7437 23.208 28.4397 23.24C28.1437 23.264 27.8437 23.316 27.5397 23.396C27.2437 23.476 27.0117 23.6 26.8437 23.768C26.6757 23.936 26.5917 24.148 26.5917 24.404C26.5917 24.772 26.7197 25.044 26.9757 25.22C27.2317 25.388 27.5437 25.472 27.9117 25.472C28.4637 25.472 28.8997 25.292 29.2197 24.932C29.5477 24.572 29.7117 24.132 29.7117 23.612V23.192ZM32.6539 27.752L33.2419 27.128C33.4739 27.424 33.7859 27.668 34.1779 27.86C34.5699 28.06 34.9739 28.16 35.3899 28.16C36.1499 28.16 36.7059 27.956 37.0579 27.548C37.4099 27.14 37.5859 26.608 37.5859 25.952V24.896H37.5619C37.3539 25.232 37.0499 25.5 36.6499 25.7C36.2579 25.9 35.8539 26 35.4379 26C34.5739 26 33.8739 25.732 33.3379 25.196C32.8019 24.66 32.5339 23.976 32.5339 23.144C32.5339 22.328 32.8019 21.64 33.3379 21.08C33.8819 20.52 34.5819 20.24 35.4379 20.24C35.8619 20.24 36.2659 20.34 36.6499 20.54C37.0419 20.732 37.3459 21.004 37.5619 21.356H37.5859V20.384H38.4019V25.952C38.4019 26.296 38.3539 26.624 38.2579 26.936C38.1699 27.248 38.0219 27.556 37.8139 27.86C37.6059 28.172 37.2899 28.42 36.8659 28.604C36.4499 28.788 35.9459 28.88 35.3539 28.88C34.8419 28.88 34.3459 28.78 33.8659 28.58C33.3939 28.38 32.9899 28.104 32.6539 27.752ZM33.9619 21.56C33.5859 21.984 33.3979 22.504 33.3979 23.12C33.3979 23.736 33.5859 24.256 33.9619 24.68C34.3459 25.096 34.8659 25.304 35.5219 25.304C36.1539 25.304 36.6699 25.104 37.0699 24.704C37.4779 24.296 37.6819 23.768 37.6819 23.12C37.6819 22.52 37.4739 22.004 37.0579 21.572C36.6499 21.14 36.1379 20.924 35.5219 20.924C34.8659 20.924 34.3459 21.136 33.9619 21.56ZM41.3399 22.76H45.1679C45.1439 22.216 44.9679 21.776 44.6399 21.44C44.3199 21.096 43.8759 20.924 43.3079 20.924C42.7799 20.924 42.3279 21.108 41.9519 21.476C41.5839 21.836 41.3799 22.264 41.3399 22.76ZM45.9959 23.024C45.9959 23.184 45.9919 23.312 45.9839 23.408H41.3279C41.3439 23.976 41.5479 24.46 41.9399 24.86C42.3319 25.252 42.8119 25.448 43.3799 25.448C43.7719 25.448 44.1279 25.356 44.4479 25.172C44.7679 24.98 45.0119 24.748 45.1799 24.476L45.7919 24.956C45.1679 25.748 44.3639 26.144 43.3799 26.144C42.5479 26.144 41.8559 25.864 41.3039 25.304C40.7519 24.744 40.4759 24.04 40.4759 23.192C40.4759 22.352 40.7479 21.652 41.2919 21.092C41.8359 20.524 42.5079 20.24 43.3079 20.24C44.1559 20.24 44.8159 20.504 45.2879 21.032C45.7599 21.552 45.9959 22.216 45.9959 23.024ZM48.9151 21.344C49.0831 21.016 49.3311 20.752 49.6591 20.552C49.9951 20.344 50.3631 20.24 50.7631 20.24C51.6111 20.24 52.1871 20.636 52.4911 21.428C52.8831 20.636 53.5391 20.24 54.4591 20.24C55.1551 20.24 55.6831 20.448 56.0431 20.864C56.4111 21.28 56.5951 21.844 56.5951 22.556V26H55.7791V22.892C55.7791 21.58 55.2951 20.924 54.3271 20.924C53.7831 20.924 53.3791 21.128 53.1151 21.536C52.8591 21.936 52.7311 22.428 52.7311 23.012V26H51.9151V22.724C51.9151 22.132 51.8151 21.684 51.6151 21.38C51.4231 21.076 51.0711 20.924 50.5591 20.924C50.1271 20.924 49.7471 21.116 49.4191 21.5C49.0911 21.876 48.9271 22.416 48.9271 23.12V26H48.1111V21.62C48.1111 21.14 48.0951 20.728 48.0631 20.384H48.8431C48.8751 20.784 48.8911 21.104 48.8911 21.344H48.9151ZM59.5208 22.76H63.3488C63.3248 22.216 63.1488 21.776 62.8208 21.44C62.5008 21.096 62.0568 20.924 61.4888 20.924C60.9608 20.924 60.5088 21.108 60.1328 21.476C59.7648 21.836 59.5608 22.264 59.5208 22.76ZM64.1768 23.024C64.1768 23.184 64.1728 23.312 64.1648 23.408H59.5088C59.5248 23.976 59.7288 24.46 60.1208 24.86C60.5128 25.252 60.9928 25.448 61.5608 25.448C61.9528 25.448 62.3088 25.356 62.6288 25.172C62.9488 24.98 63.1928 24.748 63.3608 24.476L63.9728 24.956C63.3488 25.748 62.5448 26.144 61.5608 26.144C60.7288 26.144 60.0368 25.864 59.4848 25.304C58.9328 24.744 58.6568 24.04 58.6568 23.192C58.6568 22.352 58.9288 21.652 59.4728 21.092C60.0168 20.524 60.6888 20.24 61.4888 20.24C62.3368 20.24 62.9968 20.504 63.4688 21.032C63.9408 21.552 64.1768 22.216 64.1768 23.024ZM66.244 20.384H67.024C67.056 20.784 67.072 21.104 67.072 21.344H67.096C67.248 21.024 67.504 20.76 67.864 20.552C68.232 20.344 68.616 20.24 69.016 20.24C69.712 20.24 70.24 20.448 70.6 20.864C70.968 21.28 71.152 21.844 71.152 22.556V26H70.336V22.892C70.336 22.26 70.22 21.776 69.988 21.44C69.764 21.096 69.372 20.924 68.812 20.924C68.34 20.924 67.936 21.116 67.6 21.5C67.272 21.876 67.108 22.416 67.108 23.12V26H66.292V21.62C66.292 21.14 66.276 20.728 66.244 20.384ZM76.1567 20.384V21.068H74.5727V24.344C74.5727 24.736 74.6447 25.008 74.7887 25.16C74.9327 25.304 75.1407 25.376 75.4127 25.376C75.6447 25.376 75.8807 25.316 76.1207 25.196L76.1567 25.904C75.8607 26.016 75.5407 26.072 75.1967 26.072C74.8127 26.072 74.4767 25.96 74.1887 25.736C73.9007 25.512 73.7567 25.124 73.7567 24.572V21.068H72.5927V20.384H73.7567V18.8H74.5727V20.384H76.1567Z" fill="#1A95C4"/>
</svg>
