<svg xmlns="http://www.w3.org/2000/svg" width="93" height="29" fill="none"><rect id="backgroundrect" width="100%" height="100%" x="0" y="0" fill="none" stroke="none"/>


<g class="currentLayer" style=""><title>Layer 1</title><path d="M6.66567 9.768L5.74167 12H4.79367L8.46567 3.504H9.30567L12.9537 12H11.9937L11.0577 9.768H6.66567ZM8.86167 4.464L6.98967 8.976H10.7337L8.86167 4.464ZM19.376 12H18.596C18.564 11.6 18.548 11.28 18.548 11.04H18.524C18.372 11.36 18.112 11.624 17.744 11.832C17.384 12.04 17.004 12.144 16.604 12.144C15.908 12.144 15.376 11.936 15.008 11.52C14.648 11.104 14.468 10.54 14.468 9.828V6.384H15.284V9.492C15.284 10.124 15.396 10.612 15.62 10.956C15.852 11.292 16.248 11.46 16.808 11.46C17.28 11.46 17.68 11.272 18.008 10.896C18.344 10.512 18.512 9.968 18.512 9.264V6.384H19.328V10.764C19.328 11.244 19.344 11.656 19.376 12ZM24.3807 6.384V7.068H22.7967V10.344C22.7967 10.736 22.8687 11.008 23.0127 11.16C23.1567 11.304 23.3647 11.376 23.6367 11.376C23.8687 11.376 24.1047 11.316 24.3447 11.196L24.3807 11.904C24.0847 12.016 23.7647 12.072 23.4207 12.072C23.0367 12.072 22.7007 11.96 22.4127 11.736C22.1247 11.512 21.9807 11.124 21.9807 10.572V7.068H20.8167V6.384H21.9807V4.8H22.7967V6.384H24.3807ZM30.7453 7.08C31.3133 7.64 31.5973 8.344 31.5973 9.192C31.5973 10.04 31.3133 10.744 30.7453 11.304C30.1853 11.864 29.4693 12.144 28.5973 12.144C27.7333 12.144 27.0173 11.864 26.4493 11.304C25.8893 10.744 25.6093 10.04 25.6093 9.192C25.6093 8.344 25.8893 7.64 26.4493 7.08C27.0173 6.52 27.7333 6.24 28.5973 6.24C29.4693 6.24 30.1853 6.52 30.7453 7.08ZM30.1453 10.812C30.5373 10.38 30.7333 9.84 30.7333 9.192C30.7333 8.544 30.5373 8.004 30.1453 7.572C29.7533 7.14 29.2373 6.924 28.5973 6.924C27.9653 6.924 27.4533 7.14 27.0613 7.572C26.6693 8.004 26.4733 8.544 26.4733 9.192C26.4733 9.832 26.6693 10.368 27.0613 10.8C27.4533 11.232 27.9653 11.448 28.5973 11.448C29.2373 11.448 29.7533 11.236 30.1453 10.812ZM34.5172 7.344C34.6852 7.016 34.9332 6.752 35.2612 6.552C35.5972 6.344 35.9652 6.24 36.3652 6.24C37.2132 6.24 37.7892 6.636 38.0932 7.428C38.4852 6.636 39.1412 6.24 40.0612 6.24C40.7572 6.24 41.2852 6.448 41.6452 6.864C42.0132 7.28 42.1972 7.844 42.1972 8.556V12H41.3812V8.892C41.3812 7.58 40.8972 6.924 39.9292 6.924C39.3852 6.924 38.9812 7.128 38.7172 7.536C38.4612 7.936 38.3332 8.428 38.3332 9.012V12H37.5172V8.724C37.5172 8.132 37.4172 7.684 37.2172 7.38C37.0252 7.076 36.6732 6.924 36.1612 6.924C35.7292 6.924 35.3492 7.116 35.0212 7.5C34.6932 7.876 34.5292 8.416 34.5292 9.12V12H33.7132V7.62C33.7132 7.14 33.6972 6.728 33.6652 6.384H34.4452C34.4772 6.784 34.4932 7.104 34.4932 7.344H34.5172ZM48.207 8.556V8.376C48.207 7.408 47.707 6.924 46.707 6.924C46.035 6.924 45.479 7.144 45.039 7.584L44.583 7.044C45.119 6.508 45.855 6.24 46.791 6.24C47.431 6.24 47.955 6.416 48.363 6.768C48.771 7.12 48.975 7.624 48.975 8.28V10.74C48.975 11.244 49.007 11.664 49.071 12H48.339C48.283 11.68 48.255 11.376 48.255 11.088H48.231C47.743 11.792 47.063 12.144 46.191 12.144C45.687 12.144 45.235 12.004 44.835 11.724C44.443 11.436 44.247 11.008 44.247 10.44C44.247 10.16 44.295 9.916 44.391 9.708C44.487 9.492 44.631 9.316 44.823 9.18C45.015 9.044 45.223 8.936 45.447 8.856C45.671 8.768 45.947 8.704 46.275 8.664C46.603 8.616 46.907 8.588 47.187 8.58C47.475 8.564 47.815 8.556 48.207 8.556ZM48.207 9.192H47.967C47.583 9.192 47.239 9.208 46.935 9.24C46.639 9.264 46.339 9.316 46.035 9.396C45.739 9.476 45.507 9.6 45.339 9.768C45.171 9.936 45.087 10.148 45.087 10.404C45.087 10.772 45.215 11.044 45.471 11.22C45.727 11.388 46.039 11.472 46.407 11.472C46.959 11.472 47.395 11.292 47.715 10.932C48.043 10.572 48.207 10.132 48.207 9.612V9.192ZM53.8519 6.384V7.068H52.2679V10.344C52.2679 10.736 52.3399 11.008 52.4839 11.16C52.6279 11.304 52.8359 11.376 53.1079 11.376C53.3399 11.376 53.5759 11.316 53.8159 11.196L53.8519 11.904C53.5559 12.016 53.2359 12.072 52.8919 12.072C52.5079 12.072 52.1719 11.96 51.8839 11.736C51.5959 11.512 51.4519 11.124 51.4519 10.572V7.068H50.2879V6.384H51.4519V4.8H52.2679V6.384H53.8519ZM56.3165 6.384V12H55.5005V6.384H56.3165ZM56.3045 3.816C56.4245 3.928 56.4845 4.064 56.4845 4.224C56.4845 4.384 56.4245 4.52 56.3045 4.632C56.1925 4.744 56.0605 4.8 55.9085 4.8C55.7565 4.8 55.6205 4.744 55.5005 4.632C55.3885 4.52 55.3325 4.384 55.3325 4.224C55.3325 4.064 55.3885 3.928 55.5005 3.816C55.6205 3.704 55.7565 3.648 55.9085 3.648C56.0605 3.648 56.1925 3.704 56.3045 3.816ZM63.5765 7.08C64.1445 7.64 64.4285 8.344 64.4285 9.192C64.4285 10.04 64.1445 10.744 63.5765 11.304C63.0165 11.864 62.3005 12.144 61.4285 12.144C60.5645 12.144 59.8485 11.864 59.2805 11.304C58.7205 10.744 58.4405 10.04 58.4405 9.192C58.4405 8.344 58.7205 7.64 59.2805 7.08C59.8485 6.52 60.5645 6.24 61.4285 6.24C62.3005 6.24 63.0165 6.52 63.5765 7.08ZM62.9765 10.812C63.3685 10.38 63.5645 9.84 63.5645 9.192C63.5645 8.544 63.3685 8.004 62.9765 7.572C62.5845 7.14 62.0685 6.924 61.4285 6.924C60.7965 6.924 60.2845 7.14 59.8925 7.572C59.5005 8.004 59.3045 8.544 59.3045 9.192C59.3045 9.832 59.5005 10.368 59.8925 10.8C60.2845 11.232 60.7965 11.448 61.4285 11.448C62.0685 11.448 62.5845 11.236 62.9765 10.812ZM66.4965 6.384H67.2765C67.3085 6.784 67.3245 7.104 67.3245 7.344H67.3485C67.5005 7.024 67.7565 6.76 68.1165 6.552C68.4845 6.344 68.8685 6.24 69.2685 6.24C69.9645 6.24 70.4925 6.448 70.8525 6.864C71.2205 7.28 71.4045 7.844 71.4045 8.556V12H70.5885V8.892C70.5885 8.26 70.4725 7.776 70.2405 7.44C70.0165 7.096 69.6245 6.924 69.0645 6.924C68.5925 6.924 68.1885 7.116 67.8525 7.5C67.5245 7.876 67.3605 8.416 67.3605 9.12V12H66.5445V7.62C66.5445 7.14 66.5285 6.728 66.4965 6.384ZM84.0651 7.404L82.5051 10.032L84.4131 12H83.2131L82.0131 10.74C81.6611 11.228 81.2771 11.584 80.8611 11.808C80.4531 12.032 79.9651 12.144 79.3971 12.144C78.6371 12.144 78.0051 11.936 77.5011 11.52C76.9971 11.104 76.7451 10.528 76.7451 9.792C76.7451 8.688 77.4011 7.848 78.7131 7.272C78.0251 6.568 77.6811 5.908 77.6811 5.292C77.6811 4.676 77.8811 4.188 78.2811 3.828C78.6891 3.468 79.1931 3.288 79.7931 3.288C80.3771 3.288 80.8651 3.46 81.2571 3.804C81.6491 4.148 81.8451 4.612 81.8451 5.196C81.8451 5.7 81.6691 6.128 81.3171 6.48C80.9731 6.824 80.5131 7.14 79.9371 7.428L81.9171 9.468L83.0931 7.404H84.0651ZM81.0051 5.196C81.0051 4.852 80.8891 4.568 80.6571 4.344C80.4331 4.112 80.1491 3.996 79.8051 3.996C79.4291 3.996 79.1211 4.116 78.8811 4.356C78.6411 4.596 78.5211 4.912 78.5211 5.304C78.5211 5.576 78.6211 5.872 78.8211 6.192C79.0291 6.504 79.2371 6.744 79.4451 6.912C79.9171 6.696 80.2931 6.456 80.5731 6.192C80.8611 5.92 81.0051 5.588 81.0051 5.196ZM81.4371 10.176L79.1931 7.824C78.1531 8.288 77.6331 8.948 77.6331 9.804C77.6331 10.276 77.8051 10.664 78.1491 10.968C78.4931 11.272 78.9131 11.424 79.4091 11.424C79.8571 11.424 80.2371 11.324 80.5491 11.124C80.8611 10.924 81.1571 10.608 81.4371 10.176Z" fill="#ffffff" id="svg_1" class="" fill-opacity="1"/><path d="M2.53645 17.504V26H1.67245V17.504H2.53645ZM5.90564 21.344C6.07364 21.016 6.32164 20.752 6.64964 20.552C6.98564 20.344 7.35364 20.24 7.75364 20.24C8.60164 20.24 9.17764 20.636 9.48164 21.428C9.87364 20.636 10.5296 20.24 11.4496 20.24C12.1456 20.24 12.6736 20.448 13.0336 20.864C13.4016 21.28 13.5856 21.844 13.5856 22.556V26H12.7696V22.892C12.7696 21.58 12.2856 20.924 11.3176 20.924C10.7736 20.924 10.3696 21.128 10.1056 21.536C9.84964 21.936 9.72164 22.428 9.72164 23.012V26H8.90564V22.724C8.90564 22.132 8.80564 21.684 8.60564 21.38C8.41364 21.076 8.06164 20.924 7.54964 20.924C7.11764 20.924 6.73764 21.116 6.40964 21.5C6.08164 21.876 5.91764 22.416 5.91764 23.12V26H5.10164V21.62C5.10164 21.14 5.08564 20.728 5.05364 20.384H5.83364C5.86564 20.784 5.88164 21.104 5.88164 21.344H5.90564ZM16.8714 25.052V28.88H16.0554V20.384H16.8714V21.356H16.9074C17.1314 21.004 17.4354 20.732 17.8194 20.54C18.2034 20.34 18.6034 20.24 19.0194 20.24C19.8834 20.24 20.5834 20.524 21.1194 21.092C21.6554 21.652 21.9234 22.352 21.9234 23.192C21.9234 24.032 21.6554 24.736 21.1194 25.304C20.5834 25.864 19.8834 26.144 19.0194 26.144C18.6114 26.144 18.2154 26.048 17.8314 25.856C17.4474 25.664 17.1394 25.396 16.9074 25.052H16.8714ZM20.4834 24.812C20.8674 24.38 21.0594 23.84 21.0594 23.192C21.0594 22.544 20.8674 22.004 20.4834 21.572C20.1074 21.14 19.5914 20.924 18.9354 20.924C18.3114 20.924 17.7954 21.14 17.3874 21.572C16.9794 22.004 16.7754 22.544 16.7754 23.192C16.7754 23.84 16.9794 24.38 17.3874 24.812C17.7954 25.236 18.3114 25.448 18.9354 25.448C19.5914 25.448 20.1074 25.236 20.4834 24.812ZM24.8726 16.928V26H24.0566V16.928H24.8726ZM27.872 22.76H31.7C31.676 22.216 31.5 21.776 31.172 21.44C30.852 21.096 30.408 20.924 29.84 20.924C29.312 20.924 28.86 21.108 28.484 21.476C28.116 21.836 27.912 22.264 27.872 22.76ZM32.528 23.024C32.528 23.184 32.524 23.312 32.516 23.408H27.86C27.876 23.976 28.08 24.46 28.472 24.86C28.864 25.252 29.344 25.448 29.912 25.448C30.304 25.448 30.66 25.356 30.98 25.172C31.3 24.98 31.544 24.748 31.712 24.476L32.324 24.956C31.7 25.748 30.896 26.144 29.912 26.144C29.08 26.144 28.388 25.864 27.836 25.304C27.284 24.744 27.008 24.04 27.008 23.192C27.008 22.352 27.28 21.652 27.824 21.092C28.368 20.524 29.04 20.24 29.84 20.24C30.688 20.24 31.348 20.504 31.82 21.032C32.292 21.552 32.528 22.216 32.528 23.024ZM35.4472 21.344C35.6152 21.016 35.8632 20.752 36.1912 20.552C36.5272 20.344 36.8952 20.24 37.2952 20.24C38.1432 20.24 38.7192 20.636 39.0232 21.428C39.4152 20.636 40.0712 20.24 40.9912 20.24C41.6872 20.24 42.2152 20.448 42.5752 20.864C42.9432 21.28 43.1272 21.844 43.1272 22.556V26H42.3112V22.892C42.3112 21.58 41.8272 20.924 40.8592 20.924C40.3152 20.924 39.9112 21.128 39.6472 21.536C39.3912 21.936 39.2632 22.428 39.2632 23.012V26H38.4472V22.724C38.4472 22.132 38.3472 21.684 38.1472 21.38C37.9552 21.076 37.6032 20.924 37.0912 20.924C36.6592 20.924 36.2792 21.116 35.9512 21.5C35.6232 21.876 35.4592 22.416 35.4592 23.12V26H34.6432V21.62C34.6432 21.14 34.6272 20.728 34.5952 20.384H35.3752C35.4072 20.784 35.4232 21.104 35.4232 21.344H35.4472ZM46.053 22.76H49.881C49.857 22.216 49.681 21.776 49.353 21.44C49.033 21.096 48.589 20.924 48.021 20.924C47.493 20.924 47.041 21.108 46.665 21.476C46.297 21.836 46.093 22.264 46.053 22.76ZM50.709 23.024C50.709 23.184 50.705 23.312 50.697 23.408H46.041C46.057 23.976 46.261 24.46 46.653 24.86C47.045 25.252 47.525 25.448 48.093 25.448C48.485 25.448 48.841 25.356 49.161 25.172C49.481 24.98 49.725 24.748 49.893 24.476L50.505 24.956C49.881 25.748 49.077 26.144 48.093 26.144C47.261 26.144 46.569 25.864 46.017 25.304C45.465 24.744 45.189 24.04 45.189 23.192C45.189 22.352 45.461 21.652 46.005 21.092C46.549 20.524 47.221 20.24 48.021 20.24C48.869 20.24 49.529 20.504 50.001 21.032C50.473 21.552 50.709 22.216 50.709 23.024ZM52.7761 20.384H53.5561C53.5881 20.784 53.6041 21.104 53.6041 21.344H53.6281C53.7801 21.024 54.0361 20.76 54.3961 20.552C54.7641 20.344 55.1481 20.24 55.5481 20.24C56.2441 20.24 56.7721 20.448 57.1321 20.864C57.5001 21.28 57.6841 21.844 57.6841 22.556V26H56.8681V22.892C56.8681 22.26 56.7521 21.776 56.5201 21.44C56.2961 21.096 55.9041 20.924 55.3441 20.924C54.8721 20.924 54.4681 21.116 54.1321 21.5C53.8041 21.876 53.6401 22.416 53.6401 23.12V26H52.8241V21.62C52.8241 21.14 52.8081 20.728 52.7761 20.384ZM62.6888 20.384V21.068H61.1048V24.344C61.1048 24.736 61.1768 25.008 61.3208 25.16C61.4648 25.304 61.6728 25.376 61.9448 25.376C62.1768 25.376 62.4128 25.316 62.6528 25.196L62.6888 25.904C62.3928 26.016 62.0728 26.072 61.7288 26.072C61.3448 26.072 61.0088 25.96 60.7208 25.736C60.4328 25.512 60.2888 25.124 60.2888 24.572V21.068H59.1248V20.384H60.2888V18.8H61.1048V20.384H62.6888ZM67.8654 22.556V22.376C67.8654 21.408 67.3654 20.924 66.3654 20.924C65.6934 20.924 65.1374 21.144 64.6974 21.584L64.2414 21.044C64.7774 20.508 65.5134 20.24 66.4494 20.24C67.0894 20.24 67.6134 20.416 68.0214 20.768C68.4294 21.12 68.6334 21.624 68.6334 22.28V24.74C68.6334 25.244 68.6654 25.664 68.7294 26H67.9974C67.9414 25.68 67.9134 25.376 67.9134 25.088H67.8894C67.4014 25.792 66.7214 26.144 65.8494 26.144C65.3454 26.144 64.8934 26.004 64.4934 25.724C64.1014 25.436 63.9054 25.008 63.9054 24.44C63.9054 24.16 63.9534 23.916 64.0494 23.708C64.1454 23.492 64.2894 23.316 64.4814 23.18C64.6734 23.044 64.8814 22.936 65.1054 22.856C65.3294 22.768 65.6054 22.704 65.9334 22.664C66.2614 22.616 66.5654 22.588 66.8454 22.58C67.1334 22.564 67.4734 22.556 67.8654 22.556ZM67.8654 23.192H67.6254C67.2414 23.192 66.8974 23.208 66.5934 23.24C66.2974 23.264 65.9974 23.316 65.6934 23.396C65.3974 23.476 65.1654 23.6 64.9974 23.768C64.8294 23.936 64.7454 24.148 64.7454 24.404C64.7454 24.772 64.8734 25.044 65.1294 25.22C65.3854 25.388 65.6974 25.472 66.0654 25.472C66.6174 25.472 67.0534 25.292 67.3734 24.932C67.7014 24.572 67.8654 24.132 67.8654 23.612V23.192ZM73.5104 20.384V21.068H71.9264V24.344C71.9264 24.736 71.9984 25.008 72.1424 25.16C72.2864 25.304 72.4944 25.376 72.7664 25.376C72.9984 25.376 73.2344 25.316 73.4744 25.196L73.5104 25.904C73.2144 26.016 72.8944 26.072 72.5504 26.072C72.1664 26.072 71.8304 25.96 71.5424 25.736C71.2544 25.512 71.1104 25.124 71.1104 24.572V21.068H69.9464V20.384H71.1104V18.8H71.9264V20.384H73.5104ZM75.975 20.384V26H75.159V20.384H75.975ZM75.963 17.816C76.083 17.928 76.143 18.064 76.143 18.224C76.143 18.384 76.083 18.52 75.963 18.632C75.851 18.744 75.719 18.8 75.567 18.8C75.415 18.8 75.279 18.744 75.159 18.632C75.047 18.52 74.991 18.384 74.991 18.224C74.991 18.064 75.047 17.928 75.159 17.816C75.279 17.704 75.415 17.648 75.567 17.648C75.719 17.648 75.851 17.704 75.963 17.816ZM83.235 21.08C83.803 21.64 84.087 22.344 84.087 23.192C84.087 24.04 83.803 24.744 83.235 25.304C82.675 25.864 81.959 26.144 81.087 26.144C80.223 26.144 79.507 25.864 78.939 25.304C78.379 24.744 78.099 24.04 78.099 23.192C78.099 22.344 78.379 21.64 78.939 21.08C79.507 20.52 80.223 20.24 81.087 20.24C81.959 20.24 82.675 20.52 83.235 21.08ZM82.635 24.812C83.027 24.38 83.223 23.84 83.223 23.192C83.223 22.544 83.027 22.004 82.635 21.572C82.243 21.14 81.727 20.924 81.087 20.924C80.455 20.924 79.943 21.14 79.551 21.572C79.159 22.004 78.963 22.544 78.963 23.192C78.963 23.832 79.159 24.368 79.551 24.8C79.943 25.232 80.455 25.448 81.087 25.448C81.727 25.448 82.243 25.236 82.635 24.812ZM86.1549 20.384H86.9349C86.9669 20.784 86.9829 21.104 86.9829 21.344H87.0069C87.1589 21.024 87.4149 20.76 87.7749 20.552C88.1429 20.344 88.5269 20.24 88.9269 20.24C89.6229 20.24 90.1509 20.448 90.5109 20.864C90.8789 21.28 91.0629 21.844 91.0629 22.556V26H90.2469V22.892C90.2469 22.26 90.1309 21.776 89.8989 21.44C89.6749 21.096 89.2829 20.924 88.7229 20.924C88.2509 20.924 87.8469 21.116 87.5109 21.5C87.1829 21.876 87.0189 22.416 87.0189 23.12V26H86.2029V21.62C86.2029 21.14 86.1869 20.728 86.1549 20.384Z" fill="#1a95c4" id="svg_2" class="" fill-opacity="1"/></g></svg>