<svg width="25" height="25" viewBox="0 0 25 25" fill="none" xmlns="http://www.w3.org/2000/svg">
<path d="M12.2165 0C5.48035 0 0 5.48035 0 12.2165C0 18.9522 5.48035 24.433 12.2165 24.433C18.9522 24.433 24.433 18.9522 24.433 12.2165C24.433 5.48035 18.9531 0 12.2165 0ZM17.6663 9.42047C17.6717 9.54152 17.6747 9.66356 17.6747 9.7856C17.6747 13.5013 14.8472 17.7844 9.67389 17.7844C8.08594 17.7844 6.60771 17.3204 5.36372 16.5222C5.58369 16.5483 5.80758 16.5616 6.03444 16.5616C7.35224 16.5616 8.56424 16.1118 9.52676 15.358C8.29655 15.3353 7.25776 14.5224 6.90001 13.4049C7.07126 13.4374 7.24792 13.4556 7.42851 13.4556C7.68489 13.4556 7.93388 13.4221 8.16959 13.3576C6.88328 13.0998 5.91437 11.9636 5.91437 10.6005C5.91437 10.5887 5.91437 10.5764 5.91486 10.5651C6.29376 10.7752 6.72729 10.9021 7.18788 10.9164C6.43401 10.413 5.93749 9.55186 5.93749 8.57655C5.93749 8.06084 6.07577 7.57761 6.31788 7.16229C7.70408 8.86392 9.77674 9.98292 12.1132 10.101C12.0649 9.89484 12.0408 9.68078 12.0408 9.45984C12.0408 7.90731 13.2996 6.64807 14.8521 6.64807C15.6611 6.64807 16.3909 6.98957 16.9046 7.53579C17.5458 7.40981 18.1461 7.17656 18.6909 6.85326C18.4793 7.5102 18.0349 8.06084 17.4528 8.40924C18.0221 8.34133 18.5654 8.19075 19.0678 7.96685C18.6928 8.5298 18.216 9.02533 17.6663 9.42047Z" fill="white"/>
</svg>
